<?xml version="1.0" encoding="UTF-8"?>
<!DOCTYPE svg PUBLIC "-//W3C//DTD SVG 1.1//EN" "http://www.w3.org/Graphics/SVG/1.1/DTD/svg11.dtd">
<!-- Creator: CorelDRAW 2019 (64-Bit) -->
<svg xmlns="http://www.w3.org/2000/svg" xml:space="preserve" width="55.0332mm" height="3.81mm" version="1.1" style="shape-rendering:geometricPrecision; text-rendering:geometricPrecision; image-rendering:optimizeQuality; fill-rule:evenodd; clip-rule:evenodd"
viewBox="0 0 5503.32 381"
 xmlns:xlink="http://www.w3.org/1999/xlink"
 xmlns:xodm="http://www.corel.com/coreldraw/odm/2003">
 <defs>
  <style type="text/css">
   <![CDATA[
    .fil6 {fill:#00753C}
    .fil2 {fill:#15499A}
    .fil3 {fill:#D3A570;fill-rule:nonzero}
    .fil4 {fill:#72BB38;fill-rule:nonzero}
    .fil0 {fill:#007FB4;fill-rule:nonzero}
    .fil5 {fill:#00753C;fill-rule:nonzero}
    .fil1 {fill:url(#id0);fill-rule:nonzero}
   ]]>
  </style>
  <linearGradient id="id0" gradientUnits="userSpaceOnUse" x1="600.57" y1="213.63" x2="101.6" y2="213.63">
   <stop offset="0" style="stop-opacity:1; stop-color:#15499A"/>
   <stop offset="0.509804" style="stop-opacity:1; stop-color:#008FD7"/>
   <stop offset="1" style="stop-opacity:1; stop-color:#15499A"/>
  </linearGradient>
 </defs>
 <g id="图层_x0020_1">
  <metadata id="CorelCorpID_0Corel-Layer"/>
  <g id="_1578683256176">
   <g>
    <path class="fil0" d="M484.68 112.55c-0.12,0 -0.17,0 -0.17,0 0.05,-0.06 0.11,-0.08 0.17,0z"/>
    <path class="fil1" d="M54 293.41c0,0 135.01,72.18 295.72,72.18 108.81,0 251.83,-35.05 283.11,-131.02 12.17,-37.35 8.7,-88.86 -72.74,-127.02 -0.51,4.08 -1.69,7.94 -3.41,11.45 41.12,27.91 68.29,69.97 24.17,129.35 -19.49,26.22 -43.54,43.92 -74.8,58.11 -111.34,50.56 -235.99,40.42 -255.87,38.61 -46.03,-4.2 -116.32,-15.91 -196.18,-51.66zm444.66 -207.67c-15.7,-4.23 -33.03,-8.13 -52.19,-11.6 0,0 22.53,4.75 50.53,15.17 0.49,-1.23 1.05,-2.42 1.66,-3.57z"/>
    <path class="fil2" d="M528.4 122.17c-12.48,0 -22.6,-10.12 -22.6,-22.6 0,-12.48 10.12,-22.6 22.6,-22.6 12.48,0 22.6,10.12 22.6,22.6 0,12.48 -10.12,22.6 -22.6,22.6zm-503.98 134.67l0 -91.08 34.89 -31.65 42.28 79.52 42.29 -79.52 34.89 0 0 122.73 -29.59 0 0 -86.73 -0.28 0 -40.47 86.73 -13.67 0 -40.47 -86.73 -0.29 0 0 86.73 -29.58 0zm485.32 -122.73l36.07 0 0 86.55c0,19.98 -14.99,36.18 -33.49,36.18l-2.58 0 0 -122.73zm-117.65 55.73l0 0 19.53 0c23.17,0 29.87,-5.33 29.87,-18.79 0,-10.64 -6.7,-16.9 -21.21,-16.9l-28.19 0 0 35.69zm-32.38 67l0 -122.73 74.52 0c26.8,0 39.64,13.77 39.64,33.03 0,25.36 -16.05,28.8 -34.05,33.34l0 0.31c9.35,2.98 20.23,7.99 26.51,20.04l18.84 36.01 -37.96 0 -18.7 -39.45c-2.37,-5.01 -6.14,-7.52 -10.74,-7.52l-25.68 0 0 46.97 -32.38 0zm-91.45 -84.85l0 0 -22.05 45.71 42.85 0 -20.8 -45.71zm73.41 84.85l-35.03 0 -8.79 -19.73 -61.13 0.16 -9.07 19.57 -30.84 0 60.98 -122.73 26.24 0 57.64 122.73z"/>
    <path class="fil0" d="M484.68 112.55c-0.12,0 -0.17,0 -0.17,0 0.05,-0.06 0.11,-0.08 0.17,0z"/>
    <path class="fil3" d="M101.09 94.53c8.18,-0.38 16.38,-0.75 24.6,-1.11 -6.39,5.37 -12.75,10.78 -19.1,16.18 -8.13,0.11 -16.24,0.18 -24.34,0.19 6.28,-5.02 12.54,-10.12 18.84,-15.26zm-24.22 15.26l4.27 4.51 -56.72 51.46 0 -12.12 52.45 -43.85zm10.23 -27.34c6.76,-4.62 13.53,-9.26 20.35,-13.86 -1.32,3.97 -2.65,7.93 -3.91,11.9 -1.26,3.96 -2.54,7.93 -3.79,11.9 -6.6,5.5 -13.16,10.96 -19.7,16.29 1.16,-4.32 2.33,-8.69 3.49,-13.04 1.17,-4.38 2.36,-8.78 3.56,-13.19zm170.72 -40.47c8.29,3.7 16.61,7.44 24.9,11.26 8.8,-1.28 17.6,-2.49 26.45,-3.68 -8.02,-4.28 -16.01,-8.51 -24,-12.68 -9.17,1.64 -18.28,3.34 -27.35,5.1zm-25.32 -2.79c7.81,0.68 15.66,1.4 23.47,2.15 7.83,-4.58 15.73,-9.12 23.7,-13.63 -7.95,-1.04 -15.89,-2.05 -23.84,-3.03 -7.85,4.78 -15.64,9.63 -23.33,14.51zm-0.62 4.34c6.28,5.1 12.52,10.23 18.78,15.38 7.67,0.5 15.31,1.07 22.96,1.65 -6.36,-5.79 -12.68,-11.56 -19.08,-17.32 -7.56,0.05 -15.13,0.15 -22.66,0.29zm-11.2 -17.08c-7.1,6.15 -14.12,12.34 -21.05,18.52 7.95,-0.83 15.87,-1.65 23.82,-2.44 6.58,-5.42 13.23,-10.8 19.95,-16.17 -7.57,-0.01 -15.17,0.02 -22.72,0.09zm-21.81 21.55c7.09,4.37 14.14,8.79 21.18,13.22 8.11,-0.79 16.26,-1.54 24.44,-2.27 -7.23,-4.99 -14.46,-9.96 -21.71,-14.92 -8,1.28 -15.94,2.63 -23.91,3.97zm-15.29 -14.42c-5.89,6.82 -11.69,13.65 -17.49,20.53 8.07,-1.66 16.13,-3.25 24.21,-4.83 5.94,-6.52 11.92,-13.08 17.97,-19.64 -8.24,1.31 -16.49,2.64 -24.69,3.94zm-16.79 23.17c7.67,3.25 15.29,6.54 22.91,9.87 7.58,-1.65 15.2,-3.33 22.8,-5 -7.32,-3.75 -14.67,-7.47 -21.97,-11.17 -7.94,2.07 -15.87,4.16 -23.74,6.3zm-30.29 13.52c8.34,1.78 16.66,3.61 25.02,5.48 7.16,-2.9 14.32,-5.72 21.57,-8.48 -8.22,-2.14 -16.44,-4.21 -24.62,-6.23 -7.37,3 -14.69,6.07 -21.97,9.23zm12.62 -23.73c7.85,-3.06 15.7,-6.04 23.58,-8.98 -5.36,7.18 -10.69,14.39 -15.98,21.67 -7.03,2.87 -14.03,5.81 -20.95,8.82 4.43,-7.23 8.86,-14.39 13.35,-21.51zm-41.97 42.05c8.54,0.42 17.09,0.87 25.61,1.35 6.84,-3.75 13.68,-7.43 20.54,-11.05 -8.46,-0.93 -16.91,-1.81 -25.37,-2.62 -6.97,4.05 -13.88,8.17 -20.78,12.32zm10.53 -28.19c7.37,-3.62 14.76,-7.16 22.17,-10.63 -2.12,4.15 -4.26,8.35 -6.35,12.53 -2.09,4.19 -4.18,8.41 -6.24,12.64 -6.92,3.47 -13.83,6.99 -20.71,10.54 1.82,-4.19 3.69,-8.38 5.54,-12.56 1.85,-4.18 3.72,-8.36 5.59,-12.52z"/>
   </g>
   <path class="fil2" d="M918.15 177.14c7.21,8.7 14.01,19.32 19.31,30.57 -26.53,1.91 -52.85,3.18 -72.38,3.6 20.17,-14.43 43.3,-37.14 55.83,-54.12 4.45,0 7,-1.48 7.85,-3.61l-37.57 -15.7c-5.31,21.01 -23.13,58.36 -34.59,68.76 -2.98,2.34 -17.2,4.46 -17.2,4.46l12.74 32.26c2.33,-0.63 4.46,-2.12 6.37,-4.45 33.74,-8.28 61.55,-16.98 81.92,-24.41 2.97,7.64 5.31,15.7 6.37,23.35 31.2,24.4 56.88,-40.97 -26.95,-61.98l-1.7 1.27zm-74.47 124.54l0 -2.17 -16.87 0 -12.67 33.93 -13.04 -33.93 -17.65 0 0 2.17 6.78 0.83 -0.26 41.67 -7.03 0.89 0 2.19 17.27 0 0 -2.19 -7.1 -0.95 0 -19.05c0,-4.09 -0.13,-12.34 -0.26,-18.99l15.73 41.18 3.39 0 15.28 -41.5 -0.25 20.59c-0.13,5.17 0,11.63 -0.19,18.15l-5.63 0.57 0 2.19 22.44 0 0 -2.19 -5.69 -0.57c-0.19,-6.39 -0.19,-13.04 -0.19,-19.68l0 -2.82c0,-6.65 0,-13.23 0.19,-19.81l5.75 -0.51zm16.43 28.2l6.4 -21.87 6.97 21.87 -13.37 0zm28.97 14.62l-15.35 -45.18 -6.65 0 -14.44 45.01 -5.31 0.76 0 2.18 14.64 0 0 -2.18 -6.01 -0.83 3.52 -12.14 14.7 0 3.9 12.33 -5.69 0.64 0 2.18 21.81 0 0 -2.2 -5.12 -0.57zm46.67 -11.23l-3.77 0 -3.39 11.95c-1.6,0.58 -3.2,0.83 -4.99,0.83 -9.27,0 -16.24,-6.84 -16.24,-22.63 0,-15.73 7.04,-22.76 15.99,-22.76 1.66,0 3.19,0.19 4.67,0.64l3.51 12.21 3.77 0 0.26 -11.63c-4.16,-2.31 -8.06,-3.65 -13.55,-3.65 -13.88,0 -25.96,8.06 -25.96,25.13 0,16.87 11.31,25.19 25.44,25.19 5.95,0 10.62,-1.47 14.52,-3.77l-0.26 -11.51zm21.93 -10.94c0,-7.35 0,-13.94 0.19,-20.39l3.65 0c6.46,0 9.85,3.45 9.85,9.78 0,5.82 -2.75,10.61 -9.91,10.61l-3.78 0zm24.04 22.42l-2.11 -10.54c-1.08,-6.33 -3.26,-9.83 -11.63,-10.98 10.03,-1.53 13.62,-6.46 13.62,-11.7 0,-7.61 -6.14,-12.02 -17.39,-12.02l-23.02 0 0 2.17 5.75 0.51c0.19,6.59 0.19,13.17 0.19,19.82l0 2.82c0,6.64 0,13.22 -0.19,19.67l-5.75 0.57 0 2.19 22.57 0 0 -2.19 -5.89 -0.57c-0.19,-6.51 -0.19,-13.1 -0.19,-19.8l3.14 0c4.92,0 6.46,2.55 7.35,7.79l1.85 8.81c0.64,5.18 3.9,6.92 9.78,6.92 3.2,0 4.99,-0.32 7.61,-0.96l0 -2.19 -5.69 -0.32zm18.8 -21.39c0,-13.05 3.52,-22.7 11.38,-22.7 7.81,0 11.38,9.65 11.38,22.7 0,13.17 -3.57,22.76 -11.38,22.76 -7.86,0 -11.38,-9.59 -11.38,-22.76zm11.38 -25.13c-11.95,0 -22.7,8.63 -22.7,25.13 0,16.68 10.68,25.19 22.7,25.19 12.09,0 22.64,-8.57 22.64,-25.19 0,-16.56 -10.61,-25.13 -22.64,-25.13zm54.99 31.65l6.39 -21.87 6.97 21.87 -13.36 0zm28.97 14.62l-15.35 -45.18 -6.65 0 -14.45 45.01 -5.3 0.76 0 2.18 14.63 0 0 -2.18 -6.01 -0.83 3.52 -12.14 14.71 0 3.9 12.33 -5.69 0.64 0 2.18 21.8 0 0 -2.2 -5.11 -0.57zm52.16 -20.69l-21.35 0 0 2.17 6.84 0.83c0.13,4.79 0.19,9.33 0.19,14.07l0 4.79c-1.34,0.32 -2.75,0.45 -4.21,0.45 -8.57,0 -15.35,-8.51 -15.35,-22.76 0,-15.35 6.97,-22.7 15.98,-22.7 1.86,0 3.39,0.26 4.93,0.89l3.32 11.83 3.97 0 0.25 -11.7c-3.96,-2.24 -8.37,-3.45 -13.87,-3.45 -15.41,0 -25.9,9.59 -25.9,25.06 0,15.86 10.3,25.26 25.45,25.26 6.07,0 10.61,-1.28 15.6,-4.22l0 -3.14c0,-5.24 0.06,-10.03 0.19,-14.7l3.96 -0.51 0 -2.17zm19.57 -1.48c0,-7.35 0,-13.94 0.19,-20.39l3.65 0c6.46,0 9.84,3.45 9.84,9.78 0,5.82 -2.75,10.61 -9.91,10.61l-3.77 0zm24.04 22.42l-2.11 -10.54c-1.09,-6.33 -3.26,-9.83 -11.63,-10.98 10.03,-1.53 13.61,-6.46 13.61,-11.7 0,-7.61 -6.14,-12.02 -17.39,-12.02l-23.02 0 0 2.17 5.76 0.51c0.19,6.59 0.19,13.17 0.19,19.82l0 2.82c0,6.64 0,13.22 -0.19,19.67l-5.76 0.57 0 2.19 22.58 0 0 -2.19 -5.89 -0.57c-0.19,-6.51 -0.19,-13.1 -0.19,-19.8l3.14 0c4.92,0 6.45,2.55 7.35,7.79l1.85 8.81c0.64,5.18 3.9,6.92 9.78,6.92 3.2,0 4.99,-0.32 7.61,-0.96l0 -2.19 -5.69 -0.32zm31.27 -43.07l0 -2.17 -22.57 0 0 2.17 5.75 0.51c0.19,6.58 0.19,13.16 0.19,19.81l0 2.82c0,6.64 0,13.22 -0.19,19.68l-5.75 0.57 0 2.19 22.57 0 0 -2.19 -5.69 -0.57c-0.13,-6.59 -0.13,-13.17 -0.13,-19.75l0 -2.75c0,-6.65 0,-13.29 0.13,-19.81l5.69 -0.51zm44.24 31.59l-3.77 0 -3.39 11.95c-1.6,0.58 -3.2,0.83 -4.99,0.83 -9.27,0 -16.24,-6.84 -16.24,-22.63 0,-15.73 7.04,-22.76 15.99,-22.76 1.66,0 3.19,0.19 4.67,0.64l3.51 12.21 3.77 0 0.26 -11.63c-4.16,-2.31 -8.06,-3.65 -13.55,-3.65 -13.88,0 -25.96,8.06 -25.96,25.13 0,16.87 11.31,25.19 25.44,25.19 5.95,0 10.62,-1.47 14.52,-3.77l-0.26 -11.51zm52.88 -33.75l-17.2 0 0 2.16 7.29 0.96 0.25 24.43c0.13,11.57 -4.15,16.23 -11.57,16.23 -7.35,0 -11.32,-4.28 -11.32,-15.98l0 -6.01c0,-6.31 0,-12.76 0.19,-19.03l6.14 -0.58 0 -2.18 -22.76 0 0 2.16 5.5 0.51c0.19,6.4 0.19,12.86 0.19,19.12l0 6.97c0,15.09 7.67,20.27 18.67,20.27 11.32,0 17.58,-6.65 17.78,-21.36l0.25 -24.55 6.59 -0.96 0 -2.16zm39.96 33.43l-3.45 0 -3.2 11.83 -13.3 0c-0.13,-6.65 -0.13,-13.3 -0.13,-19.63l0 -4.16c0,-5.73 0,-12.25 0.13,-18.71l6.26 -0.58 0 -2.19 -23.14 0 0 2.17 5.76 0.51c0.19,6.58 0.19,13.16 0.19,19.81l0 4.54c0,5.11 0,11.57 -0.19,17.96l-5.7 0.57 -0.06 2.2 36.96 0 -0.13 -14.32zm34.21 -30.95l3.26 11.19 3.71 0 -0.26 -13.68 -42.2 0 -0.26 13.68 3.78 0 3.19 -11.19 8.83 0c0.13,6.59 0.13,13.3 0.13,20.01l0 2.82c0,6.65 0,13.23 -0.13,19.62l-6.46 0.64 0 2.18 24.04 0 0 -2.18 -6.52 -0.64c-0.13,-6.52 -0.13,-13.17 -0.13,-19.69l0 -2.75c0,-6.77 0,-13.42 0.13,-20.01l8.89 0zm59.01 -2.48l-17.2 0 0 2.16 7.29 0.96 0.26 24.43c0.12,11.57 -4.16,16.23 -11.58,16.23 -7.35,0 -11.32,-4.28 -11.32,-15.98l0 -6.01c0,-6.31 0,-12.76 0.2,-19.03l6.14 -0.58 0 -2.18 -22.77 0 0 2.16 5.5 0.51c0.19,6.4 0.19,12.86 0.19,19.12l0 6.97c0,15.09 7.67,20.27 18.67,20.27 11.32,0 17.59,-6.65 17.78,-21.36l0.25 -24.55 6.59 -0.96 0 -2.16zm19.63 22.81c0,-7.35 0,-13.94 0.19,-20.39l3.65 0c6.45,0 9.84,3.45 9.84,9.78 0,5.82 -2.75,10.61 -9.91,10.61l-3.77 0zm24.04 22.42l-2.11 -10.54c-1.09,-6.33 -3.26,-9.83 -11.64,-10.98 10.04,-1.53 13.62,-6.46 13.62,-11.7 0,-7.61 -6.14,-12.02 -17.39,-12.02l-23.02 0 0 2.17 5.76 0.51c0.19,6.59 0.19,13.17 0.19,19.82l0 2.82c0,6.64 0,13.22 -0.19,19.67l-5.76 0.57 0 2.19 22.57 0 0 -2.19 -5.88 -0.57c-0.19,-6.51 -0.19,-13.1 -0.19,-19.8l3.13 0c4.92,0 6.46,2.55 7.35,7.79l1.86 8.81c0.64,5.18 3.9,6.92 9.78,6.92 3.2,0 4.99,-0.32 7.61,-0.96l0 -2.19 -5.69 -0.32zm46.48 -10.72l-3.58 0 -2.94 10.75 -14.38 0c-0.13,-6.65 -0.13,-13.43 -0.13,-20.53l0 -0.19 8.76 0 0.89 6.78 3.2 0 0 -16.18 -3.2 0 -0.96 7.1 -8.69 0c0,-6.78 0,-13.37 0.13,-19.76l12.99 0 2.94 10.23 3.71 0 0.07 -12.72 -36.59 0 0 2.17 5.75 0.51c0.19,6.59 0.19,13.17 0.19,19.82l0 2.82c0,6.64 0,13.21 -0.19,19.67l-5.75 0.57 0 2.2 37.91 0 -0.13 -13.24zm37.6 -11.7c0,-7.35 0,-13.94 0.19,-20.39l3.65 0c6.45,0 9.84,3.45 9.84,9.78 0,5.82 -2.75,10.61 -9.91,10.61l-3.77 0zm24.04 22.42l-2.11 -10.54c-1.09,-6.33 -3.26,-9.83 -11.64,-10.98 10.04,-1.53 13.62,-6.46 13.62,-11.7 0,-7.61 -6.14,-12.02 -17.39,-12.02l-23.01 0 0 2.17 5.75 0.51c0.19,6.59 0.19,13.17 0.19,19.82l0 2.82c0,6.64 0,13.22 -0.19,19.67l-5.75 0.57 0 2.19 22.56 0 0 -2.19 -5.88 -0.57c-0.19,-6.51 -0.19,-13.1 -0.19,-19.8l3.13 0c4.92,0 6.46,2.55 7.36,7.79l1.85 8.81c0.64,5.18 3.9,6.92 9.78,6.92 3.2,0 4.99,-0.32 7.61,-0.96l0 -2.19 -5.69 -0.32zm46.48 -10.72l-3.58 0 -2.94 10.75 -14.38 0c-0.13,-6.65 -0.13,-13.43 -0.13,-20.53l0 -0.19 8.76 0 0.89 6.78 3.2 0 0 -16.18 -3.2 0 -0.96 7.1 -8.69 0c0,-6.78 0,-13.37 0.13,-19.76l12.99 0 2.94 10.23 3.71 0 0.07 -12.72 -36.59 0 0 2.17 5.75 0.51c0.19,6.59 0.19,13.17 0.19,19.82l0 2.82c0,6.64 0,13.21 -0.19,19.67l-5.75 0.57 0 2.2 37.91 0 -0.13 -13.24zm22.89 -16.68c-4.47,-2.05 -6.91,-4.41 -6.91,-8.83 0,-4.79 3.59,-7.6 9.15,-7.6 1.6,0 2.87,0.19 4.16,0.76l3.26 10.62 3.7 0 0.58 -10.42c-3.52,-2.31 -7.99,-3.65 -12.98,-3.65 -10.42,0 -17.39,4.92 -17.39,13.56 0,7.67 4.54,11.95 13.11,15.79l3.07 1.34c5.11,2.24 6.96,4.54 6.96,8.89 0,4.98 -3.51,7.99 -9.84,7.99 -2.43,0 -4.35,-0.26 -6.27,-0.96l-3.39 -11.13 -3.7 0 -0.45 11c3.83,2.49 9.65,3.84 14.89,3.84 12.02,0 18.48,-5.82 18.48,-14.32 0,-7.23 -3.51,-11.07 -13.04,-15.35l-3.39 -1.53zm59.33 16.68l-3.58 0 -2.94 10.75 -14.38 0c-0.13,-6.65 -0.13,-13.43 -0.13,-20.53l0 -0.19 8.76 0 0.89 6.78 3.2 0 0 -16.18 -3.2 0 -0.96 7.1 -8.69 0c0,-6.78 0,-13.37 0.13,-19.76l12.99 0 2.94 10.23 3.72 0 0.06 -12.72 -36.59 0 0 2.17 5.75 0.51c0.19,6.59 0.19,13.17 0.19,19.82l0 2.82c0,6.64 0,13.21 -0.19,19.67l-5.75 0.57 0 2.2 37.91 0 -0.13 -13.24zm16.5 -4.15l6.39 -21.87 6.97 21.87 -13.36 0zm28.96 14.62l-15.34 -45.18 -6.65 0 -14.45 45.01 -5.31 0.76 0 2.18 14.64 0 0 -2.18 -6.01 -0.83 3.52 -12.14 14.7 0 3.91 12.33 -5.7 0.64 0 2.18 21.81 0 0 -2.2 -5.12 -0.57zm24.81 -22.17c0,-7.35 0,-13.94 0.19,-20.39l3.65 0c6.45,0 9.84,3.45 9.84,9.78 0,5.82 -2.75,10.61 -9.91,10.61l-3.77 0zm24.04 22.42l-2.11 -10.54c-1.09,-6.33 -3.26,-9.83 -11.64,-10.98 10.04,-1.53 13.62,-6.46 13.62,-11.7 0,-7.61 -6.14,-12.02 -17.39,-12.02l-23.01 0 0 2.17 5.75 0.51c0.19,6.59 0.19,13.17 0.19,19.82l0 2.82c0,6.64 0,13.22 -0.19,19.67l-5.75 0.57 0 2.19 22.56 0 0 -2.19 -5.88 -0.57c-0.19,-6.51 -0.19,-13.1 -0.19,-19.8l3.13 0c4.93,0 6.46,2.55 7.36,7.79l1.85 8.81c0.64,5.18 3.9,6.92 9.78,6.92 3.2,0 4.99,-0.32 7.61,-0.96l0 -2.19 -5.69 -0.32zm47.19 -11.48l-3.78 0 -3.38 11.95c-1.6,0.58 -3.2,0.83 -4.99,0.83 -9.27,0 -16.24,-6.84 -16.24,-22.63 0,-15.73 7.03,-22.76 15.99,-22.76 1.66,0 3.19,0.19 4.66,0.64l3.52 12.21 3.77 0 0.26 -11.63c-4.16,-2.31 -8.06,-3.65 -13.56,-3.65 -13.87,0 -25.96,8.06 -25.96,25.13 0,16.87 11.32,25.19 25.45,25.19 5.95,0 10.61,-1.47 14.51,-3.77l-0.25 -11.51zm55.81 -31.59l0 -2.17 -22.12 0 0 2.17 5.38 0.51c0.19,6.46 0.19,13.05 0.19,19.57l-17.2 0c0,-6.59 0,-13.17 0.19,-19.57l5.31 -0.51 0 -2.17 -22.13 0 0 2.19 5.69 0.58c0.07,6.51 0.07,13.1 0.07,19.73l0 2.82c0,6.64 0,13.21 -0.07,19.67l-5.69 0.57 0 2.19 22.13 0 0 -2.17 -5.31 -0.51c-0.19,-6.52 -0.19,-13.17 -0.19,-20.39l17.2 0c0,7.34 0,13.98 -0.19,20.31l-5.38 0.57 0 2.19 22.12 0 0 -2.19 -5.62 -0.57c-0.13,-6.59 -0.13,-13.16 -0.13,-19.67l0 -2.82c0,-6.65 0,-13.29 0.13,-19.82l5.62 -0.51zm43.61 0l0 -2.17 -22.57 0 0 2.17 5.76 0.51c0.19,6.58 0.19,13.16 0.19,19.81l0 2.82c0,6.64 0,13.22 -0.19,19.68l-5.76 0.57 0 2.19 22.57 0 0 -2.19 -5.69 -0.57c-0.13,-6.59 -0.13,-13.17 -0.13,-19.75l0 -2.75c0,-6.65 0,-13.29 0.13,-19.81l5.69 -0.51zm53.36 -2.17l-17.66 0 0 2.17 8.52 0.9 0.31 30.43 -24.26 -33.5 -15.41 0 0 2.17 4.54 0.51 1.22 1.8 -0.39 40.21 -5.88 0.89 0 2.18 17.78 0 0 -2.18 -8.57 -0.95 -0.39 -36.51 28.23 39.76 5.63 0 0.44 -44.88 5.89 -0.83 0 -2.17zm21.7 17.84c-4.47,-2.05 -6.9,-4.41 -6.9,-8.83 0,-4.79 3.58,-7.6 9.14,-7.6 1.6,0 2.88,0.19 4.16,0.76l3.26 10.62 3.71 0 0.57 -10.42c-3.51,-2.31 -7.99,-3.65 -12.98,-3.65 -10.42,0 -17.39,4.92 -17.39,13.56 0,7.67 4.54,11.95 13.11,15.79l3.07 1.34c5.11,2.24 6.97,4.54 6.97,8.89 0,4.98 -3.52,7.99 -9.85,7.99 -2.43,0 -4.34,-0.26 -6.26,-0.96l-3.39 -11.13 -3.71 0 -0.45 11c3.84,2.49 9.66,3.84 14.9,3.84 12.02,0 18.48,-5.82 18.48,-14.32 0,-7.23 -3.52,-11.07 -13.05,-15.35l-3.39 -1.53zm54.93 -15.35l3.26 11.19 3.71 0 -0.26 -13.68 -42.2 0 -0.25 13.68 3.77 0 3.19 -11.19 8.83 0c0.13,6.59 0.13,13.3 0.13,20.01l0 2.82c0,6.65 0,13.23 -0.13,19.62l-6.46 0.64 0 2.18 24.04 0 0 -2.18 -6.52 -0.64c-0.13,-6.52 -0.13,-13.17 -0.13,-19.69l0 -2.75c0,-6.77 0,-13.42 0.13,-20.01l8.89 0zm33.63 -0.32l0 -2.17 -22.57 0 0 2.17 5.75 0.51c0.2,6.58 0.2,13.16 0.2,19.81l0 2.82c0,6.64 0,13.22 -0.2,19.68l-5.75 0.57 0 2.19 22.57 0 0 -2.19 -5.69 -0.57c-0.13,-6.59 -0.13,-13.17 -0.13,-19.75l0 -2.75c0,-6.65 0,-13.29 0.13,-19.81l5.69 -0.51zm39.9 0.32l3.26 11.19 3.71 0 -0.26 -13.68 -42.2 0 -0.26 13.68 3.77 0 3.2 -11.19 8.82 0c0.13,6.59 0.13,13.3 0.13,20.01l0 2.82c0,6.65 0,13.23 -0.13,19.62l-6.45 0.64 0 2.18 24.04 0 0 -2.18 -6.53 -0.64c-0.12,-6.52 -0.12,-13.17 -0.12,-19.69l0 -2.75c0,-6.77 0,-13.42 0.12,-20.01l8.9 0zm59.01 -2.48l-17.2 0 0 2.16 7.29 0.96 0.25 24.43c0.13,11.57 -4.15,16.23 -11.57,16.23 -7.35,0 -11.32,-4.28 -11.32,-15.98l0 -6.01c0,-6.31 0,-12.76 0.2,-19.03l6.13 -0.58 0 -2.18 -22.76 0 0 2.16 5.5 0.51c0.19,6.4 0.19,12.86 0.19,19.12l0 6.97c0,15.09 7.67,20.27 18.67,20.27 11.32,0 17.58,-6.65 17.77,-21.36l0.26 -24.55 6.59 -0.96 0 -2.16zm38.23 2.48l3.26 11.19 3.71 0 -0.25 -13.68 -42.2 0 -0.26 13.68 3.77 0 3.2 -11.19 8.82 0c0.13,6.59 0.13,13.3 0.13,20.01l0 2.82c0,6.65 0,13.23 -0.13,19.62l-6.45 0.64 0 2.18 24.04 0 0 -2.18 -6.53 -0.64c-0.12,-6.52 -0.12,-13.17 -0.12,-19.69l0 -2.75c0,-6.77 0,-13.42 0.12,-20.01l8.89 0zm48.85 32.03l-3.58 0 -2.94 10.75 -14.39 0c-0.13,-6.65 -0.13,-13.43 -0.13,-20.53l0 -0.19 8.76 0 0.9 6.78 3.19 0 0 -16.18 -3.19 0 -0.96 7.1 -8.7 0c0,-6.78 0,-13.37 0.13,-19.76l12.99 0 2.94 10.23 3.72 0 0.07 -12.72 -36.6 0 0 2.17 5.76 0.51c0.19,6.59 0.19,13.17 0.19,19.82l0 2.82c0,6.64 0,13.21 -0.19,19.67l-5.76 0.57 0 2.2 37.92 0 -0.13 -13.24zm-1384.85 -208.89l-60.28 0c2.55,-7.22 5.1,-14.86 7.43,-22.71 5.1,-0.21 7.64,-2.12 8.49,-5.09l-40.96 -9.34c-1.91,12.73 -4.67,25.25 -8.07,37.14l-50.94 0 1.7 5.94 47.33 0c-13.16,42.24 -35.02,78.32 -59.22,103.37l1.92 1.7c40.75,-22.29 70.04,-53.92 89.99,-105.07l98.48 0c2.98,0 5.52,-1.06 5.95,-3.39 -10.4,-8.28 -26.96,-19.74 -26.96,-19.74l-14.86 17.19zm20.59 -60.7l-15.49 15.28 -49.25 0c19.11,-5.73 23.99,-39.69 -31.83,-36.51l-1.06 1.06c8.27,7.01 13.37,19.32 13.15,31.2 2.77,2.13 5.74,3.4 8.49,4.25l-63.67 0c-1.06,-4.67 -2.55,-9.55 -4.88,-14.65l-2.34 0c0.22,9.13 -9.34,17.83 -16.13,21.23 -8.7,4.03 -14.85,11.88 -12.1,22.5 3.61,11.25 17.41,15.07 25.69,9.76 8.28,-5.31 13.16,-16.77 11.03,-32.9l124.38 0c-1.91,8.71 -4.88,19.53 -7.64,27.17l1.49 1.27c12.31,-5.09 28.44,-14.64 37.99,-22.07 4.67,-0.21 6.79,-0.85 8.49,-2.76l-26.32 -24.83zm242.79 120.56l-2.44 0c-3.82,12.09 -7.21,22.28 -9.12,25.68 -1.28,2.12 -1.91,2.54 -3.82,2.54l-5.95 0 -6.79 0c-2.97,0 -3.61,-0.85 -3.61,-3.18l0 -40.12 2.34 0c14.86,0 24.19,-5.3 24.19,-6.79l0 -94.45c4.89,-0.85 7.01,-2.54 8.49,-4.45l-25.04 -19.53 -13.8 15.7 -41.6 0 -30.14 -11.25 0 25.69 -22.92 -20.17 -14.01 15.29 -51.15 0 1.91 5.94 51.36 0c-1.48,14.64 -3.39,29.93 -6.36,44.99 -9.98,-10.18 -22.29,-20.37 -37.36,-30.56l-2.97 1.27c10.82,17.83 22.71,38.85 32.68,60.07 -8.7,29.72 -21.64,57.52 -40.32,79.17l2.12 1.91c22.29,-14.64 38.42,-32.69 50.3,-52.64 2.97,8.28 5.52,16.35 7.43,23.99 23.14,19.1 38.21,-13.8 8.49,-58.37 7.64,-21.23 11.89,-43.3 14.65,-64.74 2.97,-0.42 4.88,-0.85 6.15,-1.7l0 92.97 5.1 0c14.22,0 22.71,-4.88 22.71,-6.79l0 -99.12 44.99 0 0 94.02 -12.73 -1.06c3.18,-19.95 2.97,-43.51 3.39,-71.1 4.89,-0.85 7.01,-2.76 7.65,-6.16l-34.39 -2.97c0,84.05 6.37,130.11 -76.83,161.74l1.48 3.18c50.31,-11.89 75.57,-28.65 88.3,-52.21l0 25.04c0,16.13 2.55,21.23 21.01,21.23l12.1 0c22.75,0 31.94,-5.52 31.94,-15.5 0,-4.88 -0.85,-7.85 -6.79,-10.82l-0.64 -26.74zm186.13 -92.55c-0.43,8.71 -1.49,19.95 -2.13,27.17l0.85 0.64c-5.51,9.13 -17.61,25.47 -28.86,37.78 -10.62,-15.28 -18.89,-34.17 -23.77,-57.52 1.06,-2.76 2.12,-5.31 3.18,-8.07l50.73 0zm-0.22 27.81c9.98,-5.52 23.99,-14.86 32.27,-21.23 4.67,-0.21 6.58,-0.85 8.27,-2.75l-26.53 -25.26 -15.7 15.49 -46.91 0c3.18,-9.55 6.15,-19.74 8.7,-30.77 5.31,-0.22 7.64,-2.13 8.28,-5.1l-43.51 -8.91c-1.49,15.92 -4.25,30.77 -8.07,44.78l-37.35 0c-1.28,-4.03 -2.76,-8.28 -4.88,-12.95l-2.13 0c-1.48,12.74 -8.49,19.74 -16.34,22.72 -26.74,31.41 36.3,47.54 24.83,-3.83l33.96 0c-14.22,46.7 -40.96,82.57 -73.43,107.61l1.69 1.91c19.74,-8.06 37.15,-17.4 52,-29.5l0 28.23c0,4.88 -1.27,7.43 -9.55,12.95l21.86 32.69c2.55,-1.7 5.31,-4.67 7.22,-8.92 22.5,-15.07 39.27,-29.08 47.97,-37.36l-0.42 -1.69c-12.32,2.33 -24.41,4.88 -35.45,6.79l0 -54.34c5.73,-0.85 7.43,-3 8.06,-6.26l-11.88 -1.06c7.64,-10.58 14.43,-22.46 20.59,-36.22 8.7,71.35 30.56,106.16 68.55,133.54 5.95,-14.44 17.19,-23.35 30.99,-24.84l0.85 -2.33c-26.32,-11.04 -50.51,-25.9 -68.77,-48.82 17.83,-5.52 35.87,-13.58 44.57,-18.46 4.04,1.69 7.22,1.48 8.92,-0.64l-28.66 -25.47zm75.01 -33.75c10.62,28.02 21.87,63.25 23.14,93.39 28.44,27.17 48.82,-38.84 -20.37,-94.45l-2.77 1.06zm144.12 136.9l-15.49 0 0 -33.11c21.01,-29.08 41.17,-65.37 52.42,-89.14 5.31,0 7.65,-2.13 8.71,-4.88l-40.12 -11.04c-4.67,24.62 -12.73,57.94 -21.01,87.23l0 -117.37c5.09,-0.64 6.37,-2.55 6.79,-5.52l-36.93 -3.4 0 177.23 -16.13 0 0 -168.74c5.09,-0.63 6.37,-2.54 6.79,-5.52l-36.93 -3.39 0 177.65 -60.49 0 1.7 5.95 190.59 0c3.19,0 5.74,-1.07 6.37,-3.4 -10.61,-10.61 -29.71,-27.17 -29.71,-27.17l-16.56 24.62zm198.54 -88.51l0 -66.01 14.65 0 0 66.01 -14.65 0zm-47.12 0l0 -1.06c3.19,-0.64 5.31,-2.12 6.37,-3.39l-23.77 -18.05 -12.1 12.53 -8.92 0 -3.6 -1.28c6.79,-16.76 11.46,-35.02 14.22,-54.76l46.27 0 0 66.01 -18.47 0zm-41.17 64.53l0 -68.56 13.58 0 0 68.56 -13.58 0zm132.65 -67.29l0 -63.25 18.26 0c2.97,0 5.3,-1.06 5.94,-3.39 -9.55,-8.7 -25.68,-21.86 -25.68,-21.86l-14.23 19.31 -65.79 0c-9.77,-8.28 -22.92,-18.46 -22.92,-18.46l-14.44 18.46 -56.03 0 1.7 5.94 22.92 0c-3.4,40.76 -11.25,83.84 -26.96,114.41l2.55 1.91c5.52,-5.52 10.83,-11.04 15.49,-16.98l0 64.94 4.89 0c13.58,0 21.65,-5.94 21.65,-7.85l0 -19.95 13.58 0 0 15.92 4.88 0c9.13,0 22.5,-5.31 22.71,-7.01l0 -75.77 0.64 2.34 17.83 0c-0.21,39.48 -5.1,74.5 -37.57,102.3l1.7 1.49c57.94,-24.2 64.1,-64.1 64.52,-103.79l14.65 0 0 102.94 5.52 0c15.28,0 23.98,-6.16 24.19,-8.07l0 -94.87 25.47 0c2.97,0 5.31,-1.06 5.73,-3.4 -7.21,-8.7 -21.01,-22.28 -21.01,-22.28l-10.19 16.97zm210.85 -53.48c-0.42,5.73 -1.06,12.52 -1.91,18.89 -11.88,-6.37 -29.5,-11.04 -54.33,-11.46l-1.49 1.69c19.95,11.25 43.09,31.84 54.34,50.31 21.01,7.64 32.12,-16.77 10.18,-34.81 8.49,-5.73 17.41,-12.74 23.46,-18.47 4.46,-0.21 6.58,-0.84 8.27,-2.76l-25.78 -24.19 -14.65 14.85 -52.64 0c15.07,-6.79 17.83,-31.83 -29.5,-30.77l-1.06 0.85c4.67,6.15 8.49,16.34 8.07,26.32 1.91,1.48 4.03,2.76 5.94,3.6l-61.55 0c-1.49,-4.88 -3.61,-9.97 -6.58,-15.28l-2.55 0.22c2.12,11.67 -4.25,22.49 -10.4,26.95 -7.85,3.61 -13.16,10.37 -10.61,19.49 3.18,9.1 13.79,12.03 21.86,7.4 7.85,-4.67 12.95,-16.52 9.76,-32.83l131.17 0zm-155.36 63.67c28.01,-8.49 60.7,-23.88 79.38,-34.24 6.79,0.85 10.82,-0.64 12.52,-3.36l-32.9 -23.53c-11.46,14.62 -42.87,47.34 -60.07,59.43l1.07 1.7zm184.33 40.12l-2.01 0c-4.67,11.67 -8.49,20.59 -11.04,23.98 -1.48,2.12 -2.76,2.55 -4.88,2.55 -1.7,0.21 -4.88,0.21 -7.64,0.21l-9.98 0c-3.82,0 -4.46,-0.64 -4.46,-3.39l0 -46.06c3.83,-0.85 5.74,-1.91 7.01,-3.61l-26.32 -21.02 -14.64 16.56 -19.74 0c0.84,-7.21 1.27,-14.86 1.69,-22.5 4.89,-0.63 6.8,-2.58 7.22,-5.8l-39.69 -3.22c-0.21,11.15 -0.21,21.55 -0.85,31.52l-42.45 0 1.91 5.94 40.12 0c-3.4,32.48 -15.71,59.65 -66.01,83.42l1.7 2.54c74.49,-19.52 90.84,-49.45 95.72,-85.96l22.92 0 0 54.34c0,18.47 3.61,24.2 26.11,24.2l15.28 0c28.23,0 39.37,-4.46 39.37,-16.35 0,-5.52 -1.48,-8.7 -8.7,-12.09l-0.64 -25.26zm66 -4.03l0 -113.35 11.88 0c-1.7,16.98 -5.52,42.24 -8.49,56.46 8.7,13.37 11.89,29.72 11.89,44.58 0,6.15 -1.49,9.55 -3.82,11.24 -1.28,0.85 -2.34,1.07 -4.25,1.07l-7.21 0zm135.2 -94.45c-0.85,5.09 -2.12,10.82 -3.19,15.7 -4.24,-3.61 -7.43,-6.16 -7.43,-6.16l-13.58 18.68 -64.1 0 1.7 5.95 94.88 0c2.97,0 5.3,-1.06 5.72,-3.4 -3.6,-3.4 -8.27,-7.43 -12.52,-11.25 7.86,-4.03 17.83,-10.19 24.3,-14.64 4.25,-0.22 6.37,-0.64 8.07,-2.34l-22.39 -21.22 -12.74 12.73 -28.44 0c13.8,-6.79 16.13,-30.99 -27.8,-35.87l-1.49 1.06c5.09,7.64 8.7,19.53 8.07,30.78 1.91,1.7 4.03,3.18 6.15,4.03l-33.96 0c-1.27,-4.03 -3.18,-8.28 -5.52,-13.16l-2.33 0c-0.21,1.28 -0.21,2.34 -0.43,3.4l-24.62 -22.29 -13.58 13.16 -7.22 0 -30.14 -11.25 0 196.54 5.1 0c14.01,0 22.29,-6.79 22.29,-8.7l0 -53.7c2.54,1.28 4.45,2.76 5.51,4.67 1.91,3.61 2.76,14.01 2.76,21.44 23.99,-0.42 31.84,-13.37 31.84,-34.39 -0.21,-17.82 -9.77,-39.26 -31.41,-52.85 11.03,-13.58 23.77,-35.44 30.98,-48.6 3.61,0 5.95,-0.42 7.86,-1.49 -1.91,5.74 -5.1,9.77 -9.34,11.68 -23.99,28.86 29.71,43.51 19.95,1.49l77.05 0zm24.72 101.87l-2.22 0c-3.82,10.62 -7.22,20.17 -9.34,23.14 -1.28,1.91 -2.55,2.33 -4.25,2.33l-5.31 0 -6.15 0c-2.97,0 -3.4,-0.85 -3.4,-3.39l0 -55.61 0 -1.7 31.52 0c2.98,0 5.31,-1.06 5.95,-3.4 -9.66,-8.91 -26.01,-22.28 -26.01,-22.28l-14.43 19.74 -87.87 0 1.7 5.94 17.4 0c-0.85,30.35 -2.97,61.13 -41.39,89.15l1.91 2.54c58.16,-22.5 67.93,-56.24 70.68,-91.69l12.1 0 0 65.16c0,18.04 2.76,23.56 22.29,23.56l11.89 0c24.47,0 33.21,-6.16 33.21,-17.19 0,-5.31 -1.27,-8.92 -7.64,-12.1l-0.64 -24.2z"/>
  </g>
  <g id="_1578675370048">
   <g>
    <g>
     <path class="fil4" d="M5248.38 357.7c1.45,-0.81 2.36,-2.09 2.36,-4.09l0 -53.61c0,-2.09 -0.91,-3.36 -2.36,-4.09l16.44 0c-1.54,0.73 -2.36,2 -2.36,4.09l0 53.61c0,2 0.82,3.28 2.36,4.09l-16.44 0z"/>
     <path class="fil4" d="M5304.26 300.82c-2.82,0 -17.54,-0.36 -17.54,-0.36l0 20.9 14.17 0c1.46,0 2.91,-1.46 3.37,-2.55l0 9.63c-0.46,-1.27 -1.91,-2.63 -3.37,-2.63l-14.17 0 0 27.8c0,2.18 0.91,3.18 2.63,4.09l-16.9 0c1.73,-0.91 2.73,-1.91 2.73,-4.09l0 -53.61c0,-2.09 -1.09,-3.36 -2.73,-4.09l38.62 0 0.45 8.82c-1.08,-2.18 -2.99,-3.82 -7.26,-3.91z"/>
     <path class="fil4" d="M5346.14 328.9c-3,1.36 -11.09,3.18 -18.09,0.63l0 24.08c0,2 1,3.28 2.37,4.09l-16.45 0c1.45,-0.81 2.55,-2.09 2.55,-4.09l0 -53.61c0,-2.09 -1.1,-3.36 -2.55,-4.09l20.63 0c18.26,0 22.71,9.45 22.71,16.9 0,9.91 -8.54,14.91 -11.17,16.09zm-13.45 -28.71l0 0c-2.73,0 -4.64,0.09 -4.64,0.09l0 25.53c0.46,0.27 2.28,0.45 3.55,0.45 4.81,0 13.99,-1.72 13.99,-13.45 0,-6.81 -3.9,-12.62 -12.9,-12.62z"/>
     <path class="fil4" d="M5407.56 357.89c-3.46,0.09 -6.46,-2.1 -8.09,-4.28 -4.09,-5.72 -8.09,-12.35 -11.36,-17.44 -2.36,-3.64 -4.45,-7.55 -8.36,-7.55 -1.09,0 -4,0.19 -4,0.19l0 24.8c0,2 1,3.28 2.55,4.09l-16.45 0c1.45,-0.81 2.36,-2.09 2.36,-4.09l0 -53.61c0,-2.09 -0.91,-3.36 -2.36,-4.09l19.63 0c18.81,0 23.08,9.18 23.08,15.27 0,9.81 -8.91,14.72 -15.36,15.17 6.18,0.64 8.9,4.82 10.27,6.82 0,0 10.99,17.17 14.08,20.9 1.82,2.09 5.82,3.63 5.82,3.63l-11.81 0.19zm-26.54 -57.61l0 0c-2.72,0 -5.27,0.18 -5.27,0.18l0 23.71c0,0 2.55,0.19 4.09,0.19 6.18,0 12.72,-3.46 12.72,-12.64 0,-4.18 -2.54,-11.44 -11.54,-11.44z"/>
     <path class="fil4" d="M5415.54 357.7c1.45,-0.81 2.36,-2.09 2.36,-4.09l0 -53.61c0,-2.09 -0.91,-3.36 -2.36,-4.09l16.45 0c-1.55,0.73 -2.36,2 -2.36,4.09l0 53.61c0,2 0.81,3.28 2.36,4.09l-16.45 0z"/>
    </g>
    <g>
     <path class="fil4" d="M5429.98 185.23l0 -105.18c-45.65,21.43 -75.75,66.01 -85.77,123.02 -7.06,-7.7 -15.37,-15.53 -23.84,-22.12 20.51,-54.06 57.3,-90.11 109.61,-104.07l0 -55.71 -70.02 0c-30.2,19.05 -50.18,52.05 -57.37,92.96 -5.72,-6.23 -12.46,-12.56 -19.3,-17.9 13.17,-34.74 34.66,-60.35 64.13,-75.06l-96.65 0 0 10.79c15.16,10.97 27.4,24.75 36.33,41.73l-8.11 19.4c-2.38,-1.8 -9.04,-6.1 -9.04,-6.1 -3.08,-13.56 -5.4,-16.91 -12.35,-27.33 -2.1,-3.74 -4.45,-7.24 -6.83,-10.53l0 35.29c32.7,15.23 57.98,37.62 74.31,68.7l-10.02 23.95c-2.94,-2.22 -11.19,-7.53 -11.19,-7.53 -3.78,-16.77 -6.65,-20.89 -15.24,-33.77 -10.11,-18.03 -23.02,-31.58 -37.86,-42.06l0 58.42c51.35,15.7 90.78,46.52 117.13,93.95l-11.9 24.9 8.1 0c15.2,-36.66 36.74,-65.56 65.88,-85.75zm-149.99 -138.52l0 0c0,-6.39 5.17,-11.59 11.51,-11.59 6.34,0 11.52,5.2 11.52,11.59 0,6.4 -5.18,11.61 -11.52,11.61 -6.34,0 -11.51,-5.21 -11.51,-11.61zm34.88 74.57l0 0c0,-7.98 6.35,-14.48 14.15,-14.48 7.79,0 14.14,6.5 14.14,14.48 0,7.98 -6.35,14.49 -14.14,14.49 -7.8,0 -14.15,-6.51 -14.15,-14.49zm57.91 103.43l0 0c-9.43,0 -17.11,-7.86 -17.11,-17.52 0,-9.65 7.68,-17.53 17.11,-17.53 9.42,0 17.11,7.88 17.11,17.53 0,9.66 -7.69,17.52 -17.11,17.52z"/>
     <path class="fil4" d="M5250.77 156.88l0 114.1 91.9 0c-16.91,-56.03 -48.33,-92.82 -91.9,-114.1z"/>
     <path class="fil4" d="M5429.98 270.98l0 -59.38c-13.16,17.98 -23.12,37.58 -29.94,59.38l29.94 0z"/>
    </g>
   </g>
   <g>
    <path class="fil5" d="M4676.01 282.13l0 -2.32 1.96 0 0 -12.1 -1.82 0 0 -2.31 4.7 0 0 14.41 1.94 0 0 2.32 -6.78 0zm26.42 -36.02c-10.11,0 -19.78,3.21 -31.16,10.2 -9.8,6.03 -17.01,10.97 -27.81,10.64 -10.14,-0.3 -15.86,-5.97 -16.33,-6.19 23.43,0.81 35.01,-17.82 41.69,-37.32 6.21,-18.15 7.25,-48.46 33.61,-48.46 26.35,0 27.39,30.31 33.61,48.46 6.67,19.5 18.26,38.13 41.69,37.32 -0.47,0.22 -6.19,5.89 -16.33,6.19 -10.8,0.33 -18.01,-4.61 -27.82,-10.64 -11.37,-6.99 -21.04,-10.2 -31.15,-10.2zm0 -47.7c-15.37,0 -16.04,22.98 -21.73,33.94 2.35,-1.75 11.88,-8.43 21.73,-8.43 9.85,0 19.38,6.68 21.72,8.43 -5.68,-10.96 -6.35,-33.94 -21.72,-33.94zm-50.78 -69.18c2.39,30.7 -7.19,106.79 -26.67,129.03 15.12,0 28.76,-29.37 34.25,-48.42 6.55,-22.71 12.24,-37.62 37.29,-39.5 4.07,-0.31 3.71,-4 0,-4.42 -13.16,-1.49 -26.87,-3.29 -28.43,-19.91 -0.45,-4.77 0.27,-12.32 -0.89,-16.6 -2.79,-10.24 -16.35,-10.53 -15.55,-0.18zm101.56 0c-2.39,30.7 7.19,106.79 26.66,129.03 -15.11,0 -27.96,-30.22 -33.46,-49.28 -6.54,-22.71 -11.23,-36.63 -38.08,-38.64 -4.07,-0.31 -3.7,-4 0,-4.42 13.17,-1.49 26.88,-3.29 28.44,-19.91 0.45,-4.77 -0.28,-12.32 0.89,-16.6 2.79,-10.24 16.35,-10.53 15.55,-0.18zm-91.9 -31.61c11.53,3.4 17.55,12.55 15.61,32.23 -0.91,9.33 -0.15,16.88 5.82,23.34 4.81,5.22 12.72,8.1 19.69,8.1 6.97,0 14.87,-2.88 19.69,-8.1 5.96,-6.46 6.73,-14.01 5.81,-23.34 -1.93,-19.68 4.09,-28.83 15.62,-32.23 -4.08,-1.48 -13.5,-2.1 -20.59,3.46 -7.94,6.23 -8.84,17.07 -9.03,20.51 -0.46,8.4 0.49,19.74 -11.5,19.74 -12,0 -11.04,-11.34 -11.5,-19.74 -0.19,-3.44 -1.09,-14.28 -9.04,-20.51 -7.08,-5.56 -16.5,-4.94 -20.58,-3.46zm62.17 174.68c0.65,0 1.21,-0.24 1.67,-0.7 0.46,-0.46 0.69,-1.03 0.69,-1.7 0,-0.67 -0.23,-1.24 -0.69,-1.7 -0.46,-0.47 -1.02,-0.7 -1.67,-0.7 -0.66,0 -1.21,0.23 -1.65,0.69 -0.44,0.46 -0.66,1.03 -0.66,1.71 0,0.68 0.22,1.25 0.66,1.71 0.45,0.45 1,0.69 1.65,0.69zm0.02 7.66c0.71,0 1.31,-0.25 1.8,-0.75 0.49,-0.49 0.74,-1.11 0.74,-1.84 0,-0.73 -0.25,-1.35 -0.73,-1.85 -0.49,-0.5 -1.09,-0.74 -1.81,-0.74 -0.72,0 -1.32,0.24 -1.81,0.74 -0.49,0.5 -0.74,1.12 -0.74,1.85 0,0.73 0.25,1.35 0.74,1.84 0.49,0.5 1.1,0.75 1.81,0.75zm-2.82 -6.49c-0.75,-0.39 -1.32,-0.9 -1.73,-1.55 -0.4,-0.64 -0.6,-1.38 -0.6,-2.2 0,-1.37 0.48,-2.49 1.44,-3.37 0.97,-0.87 2.2,-1.31 3.7,-1.31 1.49,0 2.73,0.44 3.7,1.31 0.96,0.88 1.45,2.01 1.45,3.37 0,0.81 -0.21,1.54 -0.62,2.19 -0.41,0.66 -0.99,1.17 -1.75,1.56 0.84,0.48 1.49,1.07 1.93,1.79 0.43,0.71 0.65,1.52 0.65,2.43 0,1.36 -0.5,2.5 -1.51,3.41 -1.01,0.91 -2.3,1.36 -3.86,1.36 -1.56,0 -2.84,-0.45 -3.84,-1.35 -1,-0.91 -1.51,-2.05 -1.51,-3.42 0,-0.92 0.22,-1.73 0.65,-2.45 0.43,-0.71 1.06,-1.3 1.9,-1.77zm-12.54 -5.81c-0.7,0 -1.28,0.27 -1.75,0.79 -0.47,0.53 -0.71,1.18 -0.71,1.98 0,0.8 0.24,1.46 0.7,1.98 0.47,0.53 1.05,0.79 1.76,0.79 0.7,0 1.28,-0.26 1.75,-0.79 0.48,-0.52 0.71,-1.18 0.71,-1.98 0,-0.8 -0.23,-1.47 -0.71,-1.99 -0.47,-0.52 -1.05,-0.78 -1.75,-0.78zm-2.15 9.77c0.05,0.85 0.25,1.48 0.61,1.89 0.36,0.41 0.89,0.61 1.6,0.61 0.88,0 1.51,-0.28 1.88,-0.85 0.36,-0.57 0.54,-1.66 0.54,-3.25l0 -1.22c-0.52,0.41 -1.05,0.71 -1.57,0.9 -0.52,0.2 -1.05,0.29 -1.58,0.29 -1.36,0 -2.49,-0.49 -3.36,-1.46 -0.88,-0.97 -1.31,-2.24 -1.31,-3.81 0,-1.64 0.48,-2.96 1.45,-3.96 0.98,-1.01 2.25,-1.51 3.84,-1.51 1.82,0 3.17,0.53 4.06,1.59 0.89,1.05 1.34,2.66 1.34,4.81l0 5.06c0,1.94 -0.45,3.41 -1.37,4.42 -0.9,1.02 -2.23,1.52 -3.98,1.52 -1.57,0 -2.79,-0.42 -3.66,-1.26 -0.87,-0.84 -1.3,-2.01 -1.3,-3.54l0 -0.23 2.81 0zm-13.21 -5.13c0.65,0 1.21,-0.24 1.67,-0.7 0.46,-0.46 0.69,-1.03 0.69,-1.7 0,-0.67 -0.23,-1.24 -0.69,-1.7 -0.46,-0.47 -1.02,-0.7 -1.67,-0.7 -0.66,0 -1.21,0.23 -1.65,0.69 -0.44,0.46 -0.67,1.03 -0.67,1.71 0,0.68 0.23,1.25 0.67,1.71 0.45,0.45 1,0.69 1.65,0.69zm0.02 7.66c0.71,0 1.31,-0.25 1.8,-0.75 0.49,-0.49 0.73,-1.11 0.73,-1.84 0,-0.73 -0.24,-1.35 -0.72,-1.85 -0.49,-0.5 -1.09,-0.74 -1.81,-0.74 -0.72,0 -1.33,0.24 -1.82,0.74 -0.48,0.5 -0.73,1.12 -0.73,1.85 0,0.73 0.25,1.35 0.74,1.84 0.49,0.5 1.1,0.75 1.81,0.75zm-2.82 -6.49c-0.75,-0.39 -1.33,-0.9 -1.73,-1.55 -0.4,-0.64 -0.6,-1.38 -0.6,-2.2 0,-1.37 0.48,-2.49 1.44,-3.37 0.96,-0.87 2.2,-1.31 3.7,-1.31 1.49,0 2.73,0.44 3.69,1.31 0.97,0.88 1.46,2.01 1.46,3.37 0,0.81 -0.21,1.54 -0.62,2.19 -0.41,0.66 -0.99,1.17 -1.75,1.56 0.84,0.48 1.49,1.07 1.92,1.79 0.44,0.71 0.66,1.52 0.66,2.43 0,1.36 -0.51,2.5 -1.52,3.41 -1,0.91 -2.29,1.36 -3.85,1.36 -1.56,0 -2.84,-0.45 -3.84,-1.35 -1.01,-0.91 -1.51,-2.05 -1.51,-3.42 0,-0.92 0.22,-1.73 0.65,-2.45 0.43,-0.71 1.06,-1.3 1.9,-1.77z"/>
    <path class="fil6" d="M4702.43 357.89c92.98,0 168.36,-75.38 168.36,-168.36 0,-92.98 -75.38,-168.36 -168.36,-168.36 -92.98,0 -168.36,75.38 -168.36,168.36 0,92.98 75.38,168.36 168.36,168.36zm0 -6.73c89.26,0 161.62,-72.37 161.62,-161.63 0,-89.26 -72.36,-161.63 -161.62,-161.63 -89.26,0 -161.63,72.37 -161.63,161.63 0,89.26 72.37,161.63 161.63,161.63z"/>
    <path class="fil6" d="M4702.43 304.01c63.23,0 114.48,-51.25 114.48,-114.48 0,-63.23 -51.25,-114.49 -114.48,-114.49 -63.23,0 -114.49,51.26 -114.49,114.49 0,63.23 51.26,114.48 114.49,114.48zm0 -3.36c61.37,0 111.12,-49.75 111.12,-111.12 0,-61.37 -49.75,-111.12 -111.12,-111.12 -61.37,0 -111.12,49.75 -111.12,111.12 0,61.37 49.75,111.12 111.12,111.12z"/>
    <path class="fil5" d="M4557.37 203.38l2.31 -0.27 0.17 1.47 8.98 -1.04 -0.17 -1.47 2.3 -0.27 0.66 5.65 -2.3 0.27 -0.15 -1.22 -2.98 0.34 0.37 3.19 2.98 -0.35 -0.14 -1.18 2.31 -0.27 0.65 5.61 -2.3 0.26 -0.18 -1.46 -8.97 1.04 0.16 1.47 -2.29 0.26 -0.66 -5.6 2.31 -0.27 0.14 1.19 3.69 -0.43 -0.37 -3.19 -3.69 0.43 0.13 1.22 -2.3 0.27 -0.66 -5.65zm13.09 12.19l2.25 -0.56 1.37 5.47 -2.24 0.56 -0.29 -1.13 -5.99 1.51c-0.8,0.2 -1.36,0.37 -1.7,0.51 -0.34,0.15 -0.59,0.37 -0.76,0.68 -0.17,0.3 -0.2,0.64 -0.11,1.02 0.1,0.39 0.29,0.68 0.57,0.88 0.28,0.2 0.59,0.3 0.93,0.29 0.35,-0.01 1.01,-0.14 2,-0.39l5.83 -1.46 -0.29 -1.11 2.26 -0.56 1.14 4.55 -2.25 0.57 -0.35 -1.4 -6.64 1.67c-0.89,0.23 -1.55,0.35 -1.99,0.37 -0.43,0.03 -0.89,-0.06 -1.35,-0.26 -0.49,-0.19 -0.92,-0.54 -1.31,-1.04 -0.39,-0.5 -0.68,-1.11 -0.86,-1.84 -0.22,-0.84 -0.26,-1.59 -0.12,-2.25 0.12,-0.66 0.38,-1.2 0.75,-1.61 0.39,-0.4 0.8,-0.7 1.23,-0.9 0.43,-0.19 1.18,-0.43 2.27,-0.7l5.99 -1.51 -0.34 -1.36zm-1.76 26.34l-2.21 0.71 -1.77 -5.52 2.21 -0.7 0.47 1.44 2.05 -1.24 -0.94 -2.91 -2.4 0.12 0.47 1.5 -2.2 0.7 -1.59 -4.96 2.21 -0.71 0.44 1.38 9.31 -0.57 -0.48 -1.48 2.2 -0.71 2.35 7.31 -2.21 0.71 -0.49 -1.51 -7.85 5.11 0.43 1.33zm2.52 -6.39l3.61 -2.19 -4.23 0.25 0.62 1.94zm-3.43 9.82l2.12 -0.94 10.53 1.43 -1.33 -2.99 -2.28 1.02 -0.81 -1.83 4.4 -1.96 3.69 8.3 -1.9 0.84 -10.81 -1.47 1.56 3.54 2.39 -1.06 0.81 1.81 -4.51 2 -3.86 -8.69zm5.38 11.88l2.01 -1.16 0.74 1.28 7.82 -4.54 -0.74 -1.28 2 -1.17 2.86 4.92 -2.01 1.16 -0.62 -1.06 -2.59 1.51 1.61 2.77 2.59 -1.5 -0.59 -1.04 2 -1.16 2.83 4.88 -2 1.16 -0.74 -1.27 -7.82 4.54 0.74 1.27 -2.01 1.17 -2.83 -4.88 2.01 -1.17 0.6 1.04 3.22 -1.87 -1.62 -2.78 -3.22 1.87 0.62 1.06 -2 1.17 -2.86 -4.92zm23.13 10.5c1.19,1.64 1.59,3.33 1.17,5.08 -0.41,1.74 -1.4,3.19 -2.99,4.35 -1.59,1.16 -3.27,1.67 -5.06,1.53 -1.79,-0.14 -3.28,-1.03 -4.47,-2.67 -1.25,-1.7 -1.63,-3.41 -1.17,-5.15 0.46,-1.74 1.46,-3.16 2.99,-4.27 1.57,-1.15 3.26,-1.67 5.05,-1.54 1.78,0.14 3.27,1.02 4.48,2.67zm-2.01 1.48c-0.54,-0.73 -1.31,-1.13 -2.32,-1.17 -1,-0.05 -2.12,0.38 -3.35,1.28 -1.09,0.79 -1.76,1.67 -2.05,2.65 -0.28,0.97 -0.15,1.84 0.39,2.58 0.54,0.72 1.3,1.12 2.31,1.16 1.01,0.05 2.12,-0.36 3.32,-1.24 1.08,-0.79 1.76,-1.67 2.07,-2.64 0.31,-0.98 0.18,-1.85 -0.37,-2.62zm-3.22 14.8l1.68 -1.61 1.09 1.14 6.51 -6.27 -1.1 -1.14 1.67 -1.61 3.45 3.58 -3.16 9.02 4.48 -4.31 -1.06 -1.1 1.68 -1.61 3.64 3.8 -1.67 1.61 -1.13 -1.19 -8.26 7.95 -1.82 -1.89 3.77 -10.68 -5.55 5.35 1.03 1.07 -1.67 1.61 -3.58 -3.72zm19.96 13.08l1.5 -1.77 4.19 3.57c-1.07,1.27 -2.12,2.1 -3.14,2.51 -1.03,0.4 -2.09,0.49 -3.2,0.28 -1.11,-0.22 -2.13,-0.72 -3.07,-1.52 -1.62,-1.37 -2.43,-2.94 -2.43,-4.68 -0.01,-1.75 0.64,-3.39 1.97,-4.95 0.91,-1.07 1.94,-1.84 3.07,-2.31 1.13,-0.45 2.24,-0.58 3.33,-0.38 1.07,0.2 2.06,0.66 2.9,1.38 1.2,1.02 1.85,2.16 1.94,3.42l0.73 -0.86 1.52 1.29 -3.15 3.7 -1.51 -1.29c0.37,-0.75 0.46,-1.51 0.3,-2.27 -0.18,-0.76 -0.53,-1.38 -1.07,-1.84 -0.71,-0.61 -1.58,-0.84 -2.57,-0.68 -1,0.16 -1.95,0.75 -2.83,1.79 -1.01,1.18 -1.53,2.31 -1.54,3.36 -0.02,1.06 0.34,1.89 1.08,2.52 0.54,0.46 1.12,0.7 1.73,0.7 0.62,0 1.22,-0.21 1.81,-0.64l-1.56 -1.33zm20.29 17.21l-1.24 1.96 -4.9 -3.09 1.24 -1.96 1.28 0.81 0.78 -2.27 -2.58 -1.63 -1.78 1.63 1.34 0.85 -1.24 1.96 -4.41 -2.79 1.24 -1.96 1.23 0.78 6.77 -6.42 -1.32 -0.83 1.24 -1.96 6.49 4.1 -1.24 1.96 -1.35 -0.85 -2.74 8.96 1.19 0.75zm-2.17 -6.52l1.37 -4 -3.09 2.91 1.72 1.09zm11.99 8.93l1.03 -2.09 4.94 2.43c-0.73,1.49 -1.54,2.56 -2.43,3.2 -0.9,0.65 -1.9,1 -3.04,1.07 -1.12,0.06 -2.23,-0.17 -3.34,-0.71 -1.91,-0.94 -3.08,-2.25 -3.51,-3.94 -0.44,-1.69 -0.22,-3.45 0.68,-5.28 0.62,-1.27 1.42,-2.26 2.4,-3 0.99,-0.72 2.03,-1.12 3.14,-1.19 1.1,-0.08 2.16,0.13 3.14,0.62 1.43,0.69 2.34,1.64 2.73,2.84l0.5 -1.02 1.79 0.88 -2.14 4.36 -1.78 -0.87c0.17,-0.83 0.08,-1.59 -0.28,-2.28 -0.34,-0.7 -0.84,-1.21 -1.49,-1.52 -0.84,-0.42 -1.73,-0.43 -2.65,-0.02 -0.93,0.4 -1.7,1.2 -2.3,2.43 -0.68,1.39 -0.91,2.61 -0.65,3.64 0.23,1.02 0.79,1.74 1.66,2.17 0.64,0.31 1.25,0.4 1.84,0.25 0.61,-0.16 1.14,-0.51 1.61,-1.07l-1.85 -0.9zm18.39 9.74l-0.77 2.19 -3.38 -1.2 -0.51 -6.55 -1.26 -0.45 -1.23 3.47 1.39 0.49 -0.78 2.19 -5.8 -2.06 0.79 -2.18 1.52 0.54 3.02 -8.52 -1.52 -0.54 0.77 -2.19 6.69 2.37c1.26,0.45 2.03,1.14 2.32,2.08 0.3,0.93 0.28,1.86 -0.04,2.79 -0.53,1.47 -1.54,2.3 -3.06,2.53l0.42 4.53 1.43 0.51zm-5.19 -8.06l0.99 0.35c1.21,0.43 2.01,0.15 2.36,-0.86 0.18,-0.5 0.16,-0.93 -0.03,-1.27 -0.18,-0.34 -0.52,-0.6 -1,-0.77l-1.25 -0.45 -1.07 3zm6.81 10.99l0.66 -2.23 1.71 0.51 2.57 -8.67 -1.72 -0.51 0.67 -2.22 6.38 1.89 -0.66 2.23 -1.73 -0.52 -2.56 8.67 1.72 0.51 -0.66 2.23 -6.38 -1.89zm21.84 -9.07l1.95 0.37 -0.9 4.74 -1.96 -0.37c-0.23,-1.81 -1.03,-2.85 -2.4,-3.11 -1.13,-0.22 -2.08,0.07 -2.83,0.85 -0.75,0.79 -1.25,1.8 -1.49,3.05 -0.25,1.3 -0.14,2.43 0.32,3.35 0.47,0.92 1.16,1.47 2.12,1.65 0.77,0.15 1.51,-0.02 2.21,-0.52 0.7,-0.5 1.26,-1.28 1.67,-2.32l2.04 1.7c-1.47,2.94 -3.67,4.14 -6.6,3.58 -2.09,-0.4 -3.53,-1.35 -4.34,-2.86 -0.81,-1.49 -1.02,-3.23 -0.64,-5.23 0.27,-1.41 0.78,-2.6 1.53,-3.55 0.75,-0.96 1.64,-1.63 2.68,-1.98 1.03,-0.36 2.1,-0.44 3.21,-0.23 1.39,0.27 2.45,0.91 3.24,1.91l0.19 -1.03zm3.7 2.8l0.18 -2.31 5.62 0.44 -0.18 2.31 -1.16 -0.09 -0.48 6.15c-0.06,0.83 -0.09,1.42 -0.05,1.78 0.03,0.37 0.16,0.68 0.4,0.93 0.23,0.26 0.54,0.41 0.92,0.44 0.41,0.03 0.74,-0.07 1.03,-0.26 0.27,-0.2 0.46,-0.47 0.56,-0.79 0.11,-0.33 0.2,-1.01 0.28,-2.03l0.46 -5.98 -1.13 -0.09 0.18 -2.31 4.68 0.37 -0.18 2.31 -1.44 -0.11 -0.53 6.82c-0.07,0.92 -0.16,1.59 -0.29,2.01 -0.11,0.41 -0.33,0.82 -0.67,1.2 -0.34,0.4 -0.81,0.69 -1.41,0.9 -0.59,0.22 -1.26,0.3 -2.01,0.24 -0.86,-0.07 -1.59,-0.27 -2.18,-0.6 -0.58,-0.33 -1.01,-0.75 -1.27,-1.24 -0.27,-0.49 -0.41,-0.97 -0.47,-1.45 -0.05,-0.46 -0.03,-1.25 0.06,-2.37l0.48 -6.16 -1.4 -0.11zm13.14 12.42l-0.08 -2.32 1.68 -0.06 -0.33 -9.03 -1.69 0.06 -0.08 -2.32 6.47 -0.24 0.08 2.32 -1.72 0.07 0.34 9.03 3.47 -0.13 -0.15 -4.23 2.29 -0.08 0.24 6.55 -10.52 0.38zm15.01 -0.65l-0.27 -2.3 1.76 -0.2 -1.05 -8.98 -1.75 0.2 0.36 3.16 -2.01 0.23 -0.64 -5.46 10.61 -1.23 0.64 5.46 -1.99 0.23 -0.36 -3.16 -1.81 0.21 1.04 8.98 1.76 -0.2 0.26 2.3 -6.55 0.76zm8.87 -12.05l-0.56 -2.25 5.46 -1.38 0.57 2.25 -1.13 0.29 1.5 5.98c0.21,0.81 0.37,1.37 0.52,1.71 0.15,0.34 0.38,0.59 0.68,0.75 0.3,0.18 0.63,0.22 1.01,0.12 0.4,-0.1 0.68,-0.29 0.89,-0.57 0.2,-0.28 0.29,-0.59 0.29,-0.93 -0.01,-0.35 -0.15,-1.02 -0.39,-2.01l-1.46 -5.82 -1.11 0.28 -0.57 -2.25 4.56 -1.14 0.56 2.25 -1.39 0.35 1.67 6.63c0.22,0.91 0.34,1.57 0.37,2 0.02,0.43 -0.06,0.89 -0.26,1.36 -0.2,0.48 -0.54,0.91 -1.04,1.3 -0.5,0.39 -1.11,0.68 -1.83,0.86 -0.85,0.21 -1.6,0.26 -2.27,0.13 -0.66,-0.13 -1.19,-0.38 -1.6,-0.77 -0.4,-0.38 -0.7,-0.79 -0.9,-1.22 -0.2,-0.43 -0.43,-1.18 -0.71,-2.27l-1.49 -5.99 -1.37 0.34zm27.45 1.91l0.66 2.23 -3.44 0.99 -4.24 -5.01 -1.29 0.37 1.03 3.54 1.42 -0.42 0.64 2.23 -5.91 1.72 -0.64 -2.23 1.54 -0.45 -2.52 -8.68 -1.55 0.45 -0.65 -2.23 6.82 -1.98c1.29,-0.37 2.32,-0.26 3.1,0.33 0.78,0.58 1.31,1.35 1.59,2.3 0.43,1.49 0.1,2.76 -1,3.83l2.98 3.43 1.46 -0.42zm-8.92 -3.51l1.01 -0.29c1.24,-0.36 1.71,-1.05 1.42,-2.08 -0.16,-0.51 -0.41,-0.85 -0.77,-1.02 -0.35,-0.17 -0.77,-0.18 -1.27,-0.04l-1.27 0.37 0.88 3.06zm21.73 -2.02l0.94 2.12 -5.29 2.35 -0.94 -2.12 1.38 -0.61 -1.45 -1.9 -2.8 1.24 0.38 2.38 1.45 -0.64 0.93 2.12 -4.76 2.11 -0.94 -2.12 1.32 -0.59 -1.57 -9.19 -1.42 0.63 -0.95 -2.12 7.02 -3.11 0.94 2.12 -1.44 0.64 5.92 7.26 1.28 -0.57zm-6.63 -1.81l-2.56 -3.36 0.7 4.18 1.86 -0.82zm9.94 2.79l-1.03 -2.07 1.5 -0.75 -4.03 -8.09 -1.52 0.75 -1.03 -2.07 5.79 -2.89 1.03 2.07 -1.54 0.77 4.05 8.09 3.11 -1.56 -1.89 -3.78 2.05 -1.03 2.92 5.86 -9.41 4.7zm10.3 -19.04l-1.37 -1.87 4.55 -3.32 1.37 1.87 -0.94 0.68 3.64 4.99c0.49,0.67 0.86,1.13 1.12,1.38 0.27,0.27 0.57,0.42 0.91,0.45 0.35,0.05 0.67,-0.04 0.99,-0.27 0.33,-0.24 0.52,-0.53 0.61,-0.86 0.07,-0.33 0.05,-0.66 -0.08,-0.97 -0.14,-0.32 -0.52,-0.89 -1.11,-1.72l-3.55 -4.84 -0.92 0.67 -1.37 -1.87 3.8 -2.77 1.37 1.87 -1.16 0.85 4.03 5.52c0.55,0.75 0.9,1.32 1.09,1.72 0.18,0.38 0.28,0.84 0.27,1.35 0,0.52 -0.15,1.05 -0.48,1.6 -0.31,0.55 -0.77,1.05 -1.37,1.49 -0.71,0.51 -1.39,0.83 -2.05,0.96 -0.66,0.13 -1.25,0.1 -1.77,-0.11 -0.53,-0.2 -0.95,-0.47 -1.3,-0.8 -0.34,-0.32 -0.84,-0.93 -1.5,-1.83l-3.64 -4.99 -1.14 0.82zm17.94 0.72l-1.52 -1.74 1.18 -1.04 -5.93 -6.82 -1.19 1.04 -1.52 -1.75 3.74 -3.26 8.85 3.6 -4.08 -4.68 -1.15 1 -1.52 -1.75 3.97 -3.46 1.53 1.75 -1.24 1.08 7.52 8.64 -1.98 1.72 -10.48 -4.3 5.07 5.81 1.11 -0.97 1.52 1.75 -3.88 3.38zm11.55 -10.77l-1.68 -1.61 1.25 -1.29 -6.51 -6.28 -1.25 1.29 -1.67 -1.61 4.62 -4.79 1.68 1.61 -1.25 1.3 6.5 6.27 1.26 -1.3 1.67 1.61 -4.62 4.8zm9.36 -10.5l-11.1 -4.46 -0.88 1.09 -1.81 -1.45 3.78 -4.69 1.81 1.46 -0.97 1.19 6.55 2.75 -4.06 -5.83 -0.94 1.16 -1.8 -1.46 3.26 -4.04 1.8 1.46 -0.9 1.11 6.79 9.81 -1.53 1.9zm6 -7.93l-1.96 -1.24 0.77 -1.21 -7.65 -4.82 -0.76 1.21 -1.96 -1.24 5.54 -8.78 3.68 2.32 -1.2 1.91 -1.72 -1.09 -1.95 3.08 2.66 1.67 1.57 -2.48 1.96 1.23 -1.57 2.49 3.03 1.91 1.94 -3.07 -1.73 -1.1 1.2 -1.91 3.69 2.34 -5.54 8.78zm10.58 -23.49l2.09 1.02 -1.58 3.21 -6.57 -0.24 -0.58 1.2 3.3 1.62 0.65 -1.32 2.09 1.02 -2.72 5.52 -2.08 -1.02 0.72 -1.45 -8.13 -3.98 -0.7 1.46 -2.09 -1.02 3.12 -6.38c0.6,-1.2 1.37,-1.89 2.33,-2.07 0.97,-0.19 1.88,-0.06 2.77,0.37 1.4,0.68 2.11,1.79 2.16,3.32l4.55 0.1 0.67 -1.36zm-8.6 4.23l0.46 -0.94c0.57,-1.16 0.38,-1.97 -0.59,-2.44 -0.47,-0.24 -0.9,-0.27 -1.26,-0.12 -0.36,0.14 -0.66,0.45 -0.88,0.91l-0.58 1.19 2.85 1.4zm11.89 -5.92l-4.35 -1.65 0.71 -1.86c0.8,0.28 1.45,0.32 1.96,0.12 0.5,-0.19 0.83,-0.51 0.99,-0.94 0.13,-0.34 0.12,-0.68 -0.07,-1.01 -0.18,-0.33 -0.47,-0.58 -0.83,-0.72 -0.39,-0.15 -0.76,-0.16 -1.13,-0.03 -0.34,0.13 -0.8,0.42 -1.37,0.9 -1.2,1 -2.15,1.63 -2.88,1.87 -0.71,0.25 -1.54,0.19 -2.46,-0.16 -1.12,-0.43 -1.86,-1.05 -2.26,-1.88 -0.39,-0.84 -0.43,-1.64 -0.15,-2.4 0.34,-0.87 0.99,-1.4 1.97,-1.58l-1.06 -0.4 0.71 -1.86 3.87 1.48 -0.7 1.86c-0.62,-0.18 -1.15,-0.17 -1.59,0 -0.44,0.17 -0.74,0.45 -0.89,0.85 -0.11,0.3 -0.12,0.6 0,0.88 0.1,0.28 0.32,0.48 0.62,0.6 0.26,0.1 0.54,0.11 0.84,0.02 0.3,-0.09 0.84,-0.46 1.59,-1.14 0.74,-0.66 1.35,-1.13 1.85,-1.44 0.51,-0.31 1.08,-0.48 1.72,-0.52 0.64,-0.05 1.32,0.06 2.03,0.33 1.26,0.48 2.1,1.16 2.49,2.04 0.39,0.88 0.42,1.74 0.1,2.6 -0.37,0.97 -1.08,1.56 -2.09,1.77l1.09 0.41 -0.71 1.86zm3.83 -10.22l-2.18 -0.77 0.59 -1.69 -8.52 -3.02 -0.6 1.68 -2.19 -0.77 2.23 -6.28 2.19 0.78 -0.6 1.7 8.51 3.02 0.61 -1.7 2.19 0.78 -2.23 6.27zm3.59 -11.2l-2.27 -0.49 0.37 -1.72 -8.84 -1.9 -0.37 1.72 3.11 0.67 -0.42 1.99 -5.38 -1.16 2.24 -10.44 5.38 1.16 -0.42 1.95 -3.11 -0.67 -0.38 1.77 8.84 1.91 0.37 -1.73 2.26 0.49 -1.38 6.45zm2.86 -13.97l-2.3 -0.27 0.19 -1.64 -3.67 -0.43 -5.68 2.56 -0.17 1.42 -2.3 -0.26 0.68 -5.86 2.3 0.27 -0.14 1.15 3.5 -1.32 -3.09 -2.11 -0.15 1.21 -2.3 -0.27 0.6 -5.16 2.3 0.27 -0.16 1.44 4.97 3.62 3.66 0.43 0.19 -1.65 2.31 0.27 -0.74 6.33z"/>
    <g>
     <path class="fil6" d="M4610 84.49c0.59,0.84 1.19,1.55 1.86,2.32 0.12,-0.6 0.33,-1.51 0.27,-2.14 -0.03,-0.49 -0.3,-0.91 -0.46,-1.29l1.02 -0.47c0.03,-3.3 1.13,-5.69 0.46,-5.51 -1.53,2.3 -2.46,4.62 -3.15,7.09zm-14.12 -11.95c0.06,-1.02 5.84,-1 6.62,0.32 0.98,2.65 0.23,3.06 5.41,9.36 0.89,-2.1 3.63,-6.43 5.1,-8.35l1 -1.19c0.62,-0.15 1.32,0.01 2.12,0.21l0.58 0.84c-0.87,2.58 -1.32,4.19 -1.93,8.42l0.05 0.45 1.16 0.51c0.24,0.1 0.43,0.25 0.24,0.6 -0.74,1.34 -2.99,5.01 -2.52,5.71 2.57,2.89 4.9,5.4 6.09,6.96 0.89,0.95 3.43,4.67 2.82,6.17 0.08,1.11 -1.4,-0.38 -4.41,-2.56l-1.02 -1.08c-2.8,-3.39 -5.79,-5.74 -8.66,-9.3 -0.7,0.54 -0.72,2.41 -0.51,3.16 0.17,0.6 -0.04,1.23 -0.63,1.9 -1.1,0.7 -2.84,0.34 -3.67,0.26 -1.48,-0.07 -2.52,-0.64 -2.91,-1.28 -0.4,-0.65 2.09,-0.6 3.22,-1.74 0.16,-0.23 1.24,-1.48 2.06,-5.04 -7.05,-8.55 -10.26,-12.95 -10.21,-14.33z"/>
     <path class="fil6" d="M4844.4 133.78l1.24 -0.72c0.95,0.85 1.27,2.24 1.49,3.65 0.42,0.17 0.87,0.3 1.39,0.37 0.54,0.07 1.14,0.07 1.84,-0.01 0.34,-0.18 0.46,-0.8 2.55,-0.94l0.22 -0.02c-0.74,1.8 -1.02,2.68 -2.28,5.05l-4.31 -1.68c-0.2,0.33 -0.46,0.69 -0.73,1.03 -0.28,0.34 -0.57,0.67 -0.85,0.92 -0.12,0.23 -0.35,2.31 -2.26,2.08 -0.37,-0.04 -0.84,-1.25 -1.14,-1.54l-0.89 1.4c3.35,0.35 6.52,2.06 8.96,2.03 -0.74,-0.89 -2.91,-1.95 -2.61,-2.7 0.45,-1.12 4.61,2.03 5.23,2.82 0.33,0.56 -0.69,2.02 -1.53,2.58 -0.95,0.62 -2.63,0.26 -2.85,-0.01 -0.69,-0.83 -3.73,-1.69 -5.58,-2.28 1.54,1.8 2.42,3.27 3.05,5.5 0.3,1.07 -2.4,1.95 -3.95,1.62 -0.78,-0.16 -0.77,-1.3 -1.28,-1.98 -1.29,-1.71 -2.9,-3.73 -4.04,-4.98 -1.33,-1.46 -2.52,-2.66 -4.19,-4.12l-0.74 0.19c0.84,0.38 1.7,0.95 3.41,3.38 -0.84,0.97 -0.62,1.24 -2.13,2.3l-2.68 -0.16c-0.75,-0.02 -1.5,-0.04 -2.28,-0.13 0.9,1.22 1.69,3.34 2.16,4.86 0.23,0.76 0.26,1.55 -0.24,2.09 -0.63,0.67 -1.66,0.53 -2.47,0.28 -0.37,-0.07 -0.83,-0.16 -0.55,-1.69 0.1,-0.57 -0.87,-1.62 -1.2,-2l-0.76 -0.96 1.48 0.17c-0.15,-0.65 -0.48,-1.36 -1.02,-2.08 -0.64,0.31 -1.28,0.66 -1.92,1 -1.72,0.92 -3.44,1.85 -5.34,2.27 -1.43,0.44 -2.33,0.49 -3.85,0.09 -0.31,-0.08 -0.68,-0.64 -0.72,-0.73l-0.12 -1.41c0.24,-1.2 -0.24,-1.53 -0.33,-2.2 -0.21,-1.65 1.65,-6.09 2.66,-7.59l0.7 -0.29c0.57,-0.24 -0.13,1.33 -0.14,1.35 -0.68,1.86 -1.99,5.42 -0.88,6.96 0.48,0.67 0.32,2.32 2.24,1.68 2.75,-0.9 5.03,-1.98 6.42,-3.05 -0.23,-0.68 -2.58,-3.13 -4.08,-3.58 -0.7,-0.21 -1.54,-0.65 -1.53,-1.4l0 0c0.01,-0.72 1.05,-3.28 1.72,-3.28l1.47 0.03c-0.09,0.19 -0.31,0.51 0.14,1.82 0.61,1.77 4.12,5.04 4.71,5.6 1.37,-0.24 2.32,-0.27 3,-0.3 0.8,-0.03 1.21,-0.05 1.52,-0.37 -0.82,-0.69 -3.45,-1.73 -3.57,-2.19 -0.4,-1.66 -0.06,-2.9 0.93,-4l0.06 -0.04c1.12,-0.32 2.26,-0.02 3.28,0.61 1.23,0.77 2.28,2.01 2.88,3.16l6.4 6.47c0.16,0.14 1.23,1.31 1.15,0.6 -0.49,-4.07 -8.16,-10.2 -8.4,-10.93 -0.03,-0.09 0.24,-0.67 0.27,-1.46 0.01,-0.25 0.02,-0.54 0.05,-0.95 -0.07,-0.33 -0.26,-0.66 0.48,-0.95l0.68 -0.06 0.79 3.32c0.71,0.71 1.32,1.42 1.93,2.13 0.57,0.67 1.15,1.34 1.81,2 0.32,-0.61 0.95,-1.21 1.3,-1.81 -2.84,0.62 -2.15,-1.63 -2.27,-1.92l-2.96 -3.05 4.35 1.96c0.43,0.01 0.97,-1.67 1.68,-1.74 0.74,-0.08 0.52,2.2 0.47,2.53l1.05 0.56 0.88 -0.65c-1.48,-0.97 -1.15,-0.49 -1.47,-1.61 -0.26,-0.95 -0.88,-2.86 0.09,-2.16l2.42 1.47 -0.49 -2.16 0.08 -0.05zm-2.79 -3.86c0.56,-0.67 1.35,-0.66 1.47,-0.66l0.25 1.48c0,0.32 -0.05,0.6 -0.21,0.74 -0.05,0.57 -0.38,1.2 -0.84,1.79 -0.58,0.76 -2.35,2.52 -3.21,2.48l0 0c-0.49,-0.02 -0.37,-1.46 -0.75,-2.61 2.61,-0.81 1.78,-1.39 3.29,-3.22zm-4.86 -0.14l2.43 -1.74c0.05,2.74 -1.06,3.08 -2.45,4.23 0,0.7 0.48,1.53 0.44,2.23 -0.69,0.3 -1.53,0.08 -2.29,0.05 -0.7,-0.03 -1.83,0.67 -2.71,0.73l0.18 -0.64 0 0c0.07,-1.39 0.81,-0.04 2.02,-3.17l0.42 -0.99c0.62,-0.08 1.24,-0.3 1.96,-0.7zm-6.19 1.25l0.16 0.07 0.46 1.47 -1.4 0.01c-1.76,-0.28 -1.16,-0.38 -2.78,0.13l1.5 0.86c-0.48,0.43 -0.97,0.29 -1.78,0.13 -0.63,-0.13 -1.45,-0.3 -2.36,-0.42 -0.53,0.04 -1.3,0.38 -1.74,0.77 -0.69,0.63 -1.59,0.57 -1.93,0.59 0.07,-0.39 0.14,-0.63 0.04,-1.28 0,-0.03 -0.06,-0.33 -0.06,-0.33 -0.15,-0.75 0.02,-1.39 1.09,-2.24 2.66,-2.6 7.93,-0.17 8.8,0.24z"/>
     <path class="fil6" d="M4738.76 52.93c-0.24,0.11 -0.38,0.29 -0.62,0.4 -0.62,1.75 -1.1,3.53 -1.44,5.36 0.27,0.11 0.34,0.16 0.61,0.27 0.56,-0.05 1.35,-0.51 1.97,-0.73 0.24,-0.85 0.16,-1.75 0.41,-2.6 0.01,-0.99 0.05,-1.81 -0.46,-2.57 -0.13,-0.01 -0.34,-0.11 -0.47,-0.13zm-7.85 -1.2c1.59,1.55 2.69,2.22 3.47,2.92 0.18,0.67 0.21,1.22 -0.88,1.67 -0.19,0.08 -1.32,0.32 -1.06,0.56 0.96,0.09 1.12,0.04 1.71,0.45 -0.06,0.43 -0.14,1.68 -1,1.89 -2.79,0.54 -3.62,1.57 -3.48,1.72 1.67,-0.45 3.32,-0.87 4.81,-1.49 0.84,-2.69 1.27,-4 2.11,-6.7 0.98,-0.84 2.37,-1.95 3.06,-1.24 0.32,0.42 0.84,0.84 1.03,1.51 0.07,1.03 0.14,2.07 0.24,4.05 0.14,0.83 0.11,1.83 -0.18,2.16 -1.51,0.71 -2.99,1.14 -4.49,1.85 -0.42,1 -1.01,3.28 -1.15,4.36 0,0 5.98,-1.02 7.81,1.83 2.1,2.92 -0.03,4.12 -0.03,4.12 -1.43,0.23 -3.17,-0.05 -4.56,-0.52 0.61,-1.06 1.44,-1.5 1.4,-3.67 0.48,-0.41 -2.41,-1.37 -5.01,-0.16 -0.47,1.69 -0.68,3.92 -0.96,5.74 -0.36,2.42 0.1,1.8 0.22,2.11 0.02,0.39 0.09,1.04 -0.39,1.06 -0.37,0.01 -2.77,-0.77 -2.86,-0.91 -1.04,-0.97 -1.06,-1.03 -1.65,-2.11 0.06,-0.56 -0.17,-0.88 0.49,-1.34 0.43,-1.03 0.79,-2.41 1.09,-3.68 -2.73,0.78 -4.76,1.64 -5.17,2.4 -0.8,0.86 -2.42,1.06 -2.31,1.15 -0.79,0.1 -2.83,-2.68 -3.4,-2.97 -0.53,-0.75 -0.19,-1.47 -0.29,-2.33 2.63,1.31 4.16,2.1 5.1,1.93 2.46,-0.97 4.57,-1.47 6.78,-1.99 0.41,-1.4 0.93,-2.63 1.34,-4.03 -1.4,0.29 -1.89,1.21 -3.18,1.53 -0.43,0.1 -2.11,-0.37 -2.49,-0.62 -0.62,-1.41 -0.98,-1.53 -0.97,-3.01 0.66,-0.27 1.78,0.26 2.35,0.34 0.88,-0.4 1.82,-1 2.28,-1.51 -0.44,-0.71 -2.19,0.75 -1.27,-2.35 1.13,-0.18 1.6,-0.37 1.96,-1.03 -0.69,-0.39 -1.5,-1.45 -1.58,-2.38 -0.06,-0.71 0.64,-1.32 1.11,-1.31zm8.17 -17.32c-0.14,0.01 -2.02,1.64 -3.49,7.38 -0.15,1.21 -3.1,-0.19 -2.81,0.15l-0.66 -0.87c-0.83,-0.42 -1.71,-0.47 -1.52,0.73l0.27 1.47c0.44,2.45 1.78,2.41 2.98,1.9 0.34,-0.14 0.17,-1.16 0.5,-1.29 0.24,-0.1 0.67,-0.07 0.74,-0.05 -0.05,0.77 -0.86,2.08 -0.91,2.84 -0.22,0.19 -0.44,0.37 -0.67,0.55 0.16,0.43 0.33,0.87 0.49,1.31 -3.27,0.23 -4.31,0.68 -11.05,0.19 -0.96,-0.27 -2.45,-0.73 -3.39,-0.77 -0.55,0 -0.44,1.7 2.62,3.15 0.41,0.14 1.25,-0.23 2.16,-0.33 1.67,-0.17 4.71,-0.48 7.91,-0.58 3.46,-0.29 7.06,-0.65 10.32,-0.3 0.34,0.39 -0.75,0.42 -0.26,1.08 1.07,-0.55 3.26,-0.4 6.06,0.17 0.53,0.11 1.06,-0.5 1.7,-1.21 0.17,-1.02 0.25,-1.36 -1.27,-2.72 -0.88,-0.15 -1.14,-0.12 -2.02,-0.27 -0.61,0.19 -0.27,0.56 -0.83,0.64 -2.92,0.45 -5.4,0.71 -8.3,0.58 1.3,-0.66 3.01,-1.63 4.74,-2.08 2.67,-0.72 5.22,-1.39 7.89,-2.11 0.46,-1.24 0.71,-2.26 0.82,-3.59 -1.03,-0.39 -2.07,-0.77 -3.1,-1.16 -2.14,0.91 -3.64,1.1 -5.6,1.73 -1.22,-0.34 -2.41,-0.76 -3.63,-1.1 0.13,1.24 0.19,2.59 1.03,3.4 2.02,0.56 2.07,0.02 3.28,-0.96 1.04,-0.84 2.79,-1.41 3.92,-2.21 1.41,0.12 0.76,1.12 0.53,1.4 -1.39,1.55 -4.42,2.63 -7.42,3.72 -1.07,0.99 -2.4,1.59 -3.7,2.01 -0.08,-0.65 0.61,-2.44 0.53,-3.09 0.2,0.16 1.15,-5.77 3.53,-6.4 1.13,-1.81 -1.39,-3.31 -1.39,-3.31z"/>
     <path class="fil6" d="M4805.76 73.43c0.03,0.3 -3.15,3.79 -7.28,7.28 -0.91,0.79 -3.97,2.9 -6.34,4.41 -1.7,-0.57 -4.32,-2.04 -4.77,-2.46 -0.26,-0.62 -0.89,-1.4 -1.16,-2.02 -0.44,-0.18 -0.47,0.04 -0.86,0.52 0.02,1.94 0.21,2.94 1.02,4.23 0.42,0.48 0.97,0.59 1.18,0.68 0.63,0.26 1.69,0.62 2.3,1.06 -0.2,-0.19 -6.33,5.62 -11.47,4.91 -2.36,-0.56 -3.86,-1.51 -4.81,-2.3 -0.12,-0.02 -0.07,0.35 -0.17,0.37 -0.51,0.2 2.33,2.62 4.23,3.7 0.55,0.15 2.02,1.73 5.15,0.56 1.13,-0.43 2.65,-1.48 5.26,-3.09 1.98,-1.14 0.96,1.57 0.76,3.14 -0.35,2.09 -1.21,4.25 -1.54,6.33 0.2,1.52 0.76,2.93 2.44,5.23 4.33,0.51 6.57,0.02 7.71,-0.95 -0.52,-1.25 -2.59,-1.01 -4.73,-2.98 -1.77,-1.76 -1.36,-7.95 -2.49,-10.15 -0.48,-0.93 -0.32,-1.46 0.6,-2.23 0.39,-0.39 1.52,-1.35 2.12,-1.15 1.89,-0.3 7.26,2.68 8.16,2.34 1.2,-0.39 1.82,-1.97 1.5,-4.3 -0.09,-0.56 -0.41,-1.68 -0.69,-2.92 -0.08,0.71 -0.3,1.48 -0.55,2.12 -0.24,0.61 -1.19,1.43 -1.55,1.77 -1.4,0.24 -2.9,-0.63 -4.31,-1.04 1.43,-1.13 3.65,-2.46 5.1,-3.46 1.14,-0.79 2.4,-2.07 3.41,-2.65 0.47,-0.28 0.83,-0.39 1.31,-0.66 0.48,-0.26 1.57,0.23 2.89,-1.32 -0.58,-1.28 -0.96,-2.74 -1.58,-3.98 -0.2,-0.41 -0.39,-0.67 -0.84,-0.99z"/>
     <path class="fil6" d="M4579.03 152.52c0,0 0.18,-0.11 0.39,-1.01 0.21,-0.9 0.3,-2.09 0.49,-4.72 -0.71,-0.23 -2.44,-1.03 -2.18,-0.55l0.1 1.35c0.25,2.06 0.65,3.49 1.2,4.93zm-0.58 -10.46c0.21,0.24 1.23,0.45 1.52,0.66 0.03,-0.36 0.25,-1.52 -0.27,-1.6 -0.33,-0.05 -0.78,0.82 -1.25,0.94zm-4.13 -1.77c0.23,-1.22 0.67,-3.49 0.78,-2.86l0.66 3.49c-0.57,-0.11 -1.11,-0.34 -1.44,-0.63zm-23.54 -3.57c0.44,0.14 -0.51,0.85 2.03,1.43 1.9,-0.18 4.97,1.19 5.87,1.85 -0.4,2.44 -2.72,3.21 -0.75,3.33 1.97,0.12 3.24,-1.38 3.24,-1.38l-0.17 -3.09 1.06 -3.2 1.45 2.19c0,0 -1.35,1.46 -1.16,2.55 -0.01,0.57 2.45,0.44 3.41,1.31 -0.18,-0.06 -0.42,1.58 -0.47,2.22 0,0 -1.41,0.6 -1.21,1.7 1.07,0.44 2.9,1.27 2.9,1.27l0.59 1.47c0,0 0.64,-0.58 1.21,-0.79 0.86,0.18 1.25,0.43 1.25,0.43l1.54 -3.04c0,0 -0.47,-0.14 -1.08,-0.56 -0.61,-0.41 -0.46,-1.31 -0.46,-1.31l2.11 0.79c0,0 -0.03,7.33 -2.1,11.37 -1.47,2.02 -0.12,2.25 0.28,2.23 0.9,-0.31 3.87,-1.71 3.87,-1.71 0,0 0.98,-0.65 0.15,-2.38 -0.19,-0.84 -1.11,-7.48 -0.35,-8.71 0.67,-0.1 1.97,0.77 2.06,0.56 0.08,-0.22 1.77,7.5 1.62,9.36 -0.16,1.86 2.98,1.87 4.03,-0.39 1.06,-2.27 -0.12,-1.53 -0.19,-2.9 -0.08,-1.38 -0.14,-2.6 0.44,-3.81 0.09,-0.23 8.98,3.04 12.26,3.34 0.56,-0.88 1.09,-1.13 -1.79,-3.04 -1.65,-1.15 -9.2,-3.91 -9.8,-4.15 0,0 0.35,-2.22 1.67,-5.29 0.43,-1.85 -1.25,-2.32 -2.32,-1.77l-4.23 2.93c-0.65,1.05 -2.28,-4 -1.53,-11.03 -0.44,-2.09 -4.18,1.49 -3.83,2.49 0.82,1.08 0.81,4.36 0.81,4.36l-0.55 4.14 -5.22 -2.07c-0.24,-0.84 -0.2,-0.28 -1.24,-0.79l-1.55 0.78 -0.43 -0.73 -0.15 -0.97c0,0 1.39,-1.34 2.81,-0.61 0.21,0.11 -0.32,0.45 -0.15,0.71 0.7,0.75 0.99,0.48 2.06,-0.26 1.3,-0.06 1.63,2.95 2.74,2.54 -0.41,-3.22 -0.3,-1.88 -1.24,-4.24l-1.31 -2.18 -0.2 -1.44c-0.09,-0.62 -0.06,-1.21 -1.82,-1.6 -0.16,0.48 -1.38,0.76 -0.76,1.66l0.24 1.23c-0.76,0.2 -2.58,0.57 -3.04,2.36 -0.73,-0.39 -1.86,-1.43 -0.9,-4.99 -0.02,-2.35 -1.47,-1.96 -1.47,-1.96 0,0 -2.95,-1.18 -3.35,-0.17 -0.4,1.02 0.42,2.86 0.42,2.86l2.34 4.3 -0.96 2.8c-0.76,-0.27 -0.62,-1.08 -1.07,-1.61 -2.26,-0.63 -3.35,-2.13 -7.61,1.61z"/>
     <path class="fil6" d="M4663.85 68.83c0,0 -3.64,5.92 -3.3,7.61 1.62,2.64 3.3,-7.61 3.3,-7.61zm-4.05 -24.95l0 0c-0.9,1.19 0.34,2.48 0.36,3.61 -0.97,0.39 -0.77,0.96 -0.41,1.57 1.07,-0.29 1.5,-0.17 2.32,0 0.21,0.4 0,0.51 0.21,0.91 2.16,-0.6 2.3,-0.91 1.99,-2.96 0.69,-0.25 1.05,-0.95 1.75,-1.2 0.43,-0.39 -1.04,7.34 -1.33,8.77 -0.24,1.38 0.61,1.94 2.13,1.23l-1.82 7.94c0,0 -8.18,12.4 -5.3,15.82 1.15,0.34 2.14,-1.08 2.14,-1.08 0.83,-1.25 1.82,-3.74 2.5,-6.26 1.18,-4.17 2.38,-6.61 3.12,-10.05 2.14,-2.36 4.79,-5.14 7.02,-6.26 0.17,1.96 -1.21,3.54 -2.16,4.85 -1.25,-0.12 -2.71,0.21 -3.82,0.69 -0.19,2.47 -0.26,5.1 0.24,7.96 0.15,0.88 0.14,2.4 -0.16,2.63 -0.43,0.33 0.27,1.32 0.35,2.1 0.35,1.09 1.23,1.69 2.63,1.79 1.04,-0.56 1.95,-1.02 1.68,-3.47 0.46,-1.78 1.1,-3.23 1.89,-4.2 2.12,0.9 3.17,1.8 3.7,2.74 0.2,0.32 4.44,-1.4 3.79,-3.56 -2.09,0.02 -5.17,0.27 -6.14,-0.55 1.73,-0.5 3.16,-1.6 4.18,-2.65 -0.54,-0.68 -2.4,-1.44 -3.23,-1.53 -1.08,1.77 -2.26,2.53 -5.95,3.35 0.24,0.54 0.66,1.31 0.59,1.92 0.53,0.13 1.11,0.21 1.63,0.34 -0.31,0.91 -1.19,1.68 -1.66,2.62 -1.27,-2.51 -1.1,-4.56 -1.66,-8.22 0.99,-0.45 1.57,-0.17 2.16,0.48 1.02,-1.02 2.37,-1.94 2.89,-2.43 0.63,-1.34 2.44,-3.67 2.47,-4.99 -0.91,-0.93 -1.9,-1.71 -3.72,-1.92 -0.83,0.81 -1.49,1.05 -2.33,1.85l-2.66 2.93c0.44,-2.42 1.17,-5.07 2.52,-7.8 -0.62,-0.28 -1.62,-0.66 -2.11,-0.32 -0.35,0.37 -0.4,0.77 -0.76,1.15 -0.66,-0.61 -0.66,-1.35 -0.07,-2.11 1.04,0.29 2.09,0.49 3.14,0.02 1.86,-3.3 4.32,-6.64 6.59,-10.29 -0.94,-0.89 -1.61,-1.3 -3.71,-1.05 -1.43,0.59 -3.7,1.6 -5.04,2.86 -0.05,-0.41 -0.05,-0.73 0.01,-1.06 0.12,-0.73 0.74,-1.3 0.51,-2.61 -1.75,-2.09 -2.3,-2.92 -3.25,-3.13 -1.46,1.62 -1.94,2.46 -2.23,4.32 1.49,1.56 1.14,3.56 1.24,4.72 -0.34,0.48 -1.66,1.24 -2.58,2 -1.56,0.22 -1.72,-1.34 -3.65,-1.47zm-4.48 5.67l0 0c1.12,2.77 2.81,2.05 2.67,4.63 1.23,0.6 3.11,1.64 3.29,1.89 0.19,0.25 3.33,-1.06 0.97,-3.86 -2.35,-2.8 -4.21,-3.21 -4.21,-3.21l-2.72 0.55zm17.71 -7.61l0 0c0,0 -2.69,1.27 -3.4,1.97 -0.1,1.44 -0.7,3.97 -0.54,3.94 2.2,-1.95 3.16,-4.28 3.94,-5.91z"/>
    </g>
   </g>
   <rect class="fil4" x="5056.44" y="21.17" width="6.29" height="336.72"/>
  </g>
 </g>
</svg>
